<svg width="25" height="28" viewBox="0 0 25 28" fill="none" xmlns="http://www.w3.org/2000/svg">
<path d="M12.731 0C13.4057 0.229651 13.6865 0.705433 13.6401 1.40449C13.6198 1.71175 13.6369 2.02114 13.6369 2.33744C13.9535 2.40868 14.2567 2.46769 14.5551 2.54583C17.9802 3.44636 20.4145 6.5525 20.454 10.0781C20.4652 11.1035 20.4604 12.1295 20.4562 13.155C20.446 15.5376 21.329 17.5215 23.1173 19.1068C23.9341 19.8308 24.1044 20.8775 23.5428 21.7318C23.1424 22.341 22.5573 22.6302 21.8335 22.6408C21.3188 22.6483 20.8037 22.6424 20.2885 22.6424C14.624 22.6424 8.95887 22.6414 3.29431 22.644C2.3713 22.6445 1.67625 22.2756 1.29295 21.424C0.948091 20.658 1.14401 19.7819 1.79156 19.1971C2.45405 18.5996 3.04821 17.95 3.49824 17.177C4.20878 15.9565 4.5467 14.6403 4.54189 13.2289C4.53762 12.0179 4.48904 10.8016 4.58513 9.59697C4.81201 6.75025 6.2427 4.63821 8.72612 3.23C9.4799 2.80259 10.2956 2.53148 11.1519 2.39486C11.3296 2.36668 11.3676 2.29226 11.3611 2.1349C11.3515 1.90525 11.3729 1.67401 11.3563 1.44542C11.3056 0.745303 11.5677 0.245067 12.2516 0C12.4112 0 12.5714 0 12.731 0Z" fill="#0052CC"/>
<path d="M0.000476484 10.8382C0.139808 7.15211 1.46533 3.96464 4.04484 1.30611C4.58722 0.747396 5.27267 0.70221 5.76006 1.17905C6.23785 1.64686 6.21222 2.3289 5.68212 2.87326C4.37475 4.21396 3.41918 5.76569 2.84424 7.54602C2.50044 8.61135 2.30933 9.70432 2.28531 10.8249C2.28157 10.9924 2.28317 11.162 2.25968 11.3273C2.17053 11.9482 1.67246 12.3506 1.05054 12.315C0.468119 12.2815 0.0132886 11.7908 0.00154416 11.1832C-0.00112503 11.0679 0.000476484 10.953 0.000476484 10.8382Z" fill="#0052CC"/>
<path d="M24.995 10.8312C24.995 10.9216 25.0036 11.0986 24.9934 11.2746C24.9608 11.854 24.4751 12.3107 23.89 12.3186C23.2867 12.3271 22.77 11.8827 22.746 11.2921C22.7054 10.3017 22.628 9.31829 22.3877 8.35184C21.8838 6.32751 20.9122 4.55888 19.4783 3.04169C19.2285 2.77749 18.9584 2.52976 18.9141 2.1385C18.8585 1.64784 19.1025 1.18694 19.5328 0.974301C19.9796 0.753156 20.4793 0.831833 20.8546 1.20236C21.6591 1.9955 22.3509 2.87849 22.9424 3.83962C24.2103 5.89957 24.9326 8.33057 24.995 10.8312Z" fill="#0052CC"/>
<path d="M8.35938 23.7812C11.1252 23.7812 13.8899 23.7812 16.6568 23.7812C16.36 25.5063 14.6608 27.2818 12.2729 27.1574C9.99079 27.0389 8.55316 25.2166 8.35938 23.7812Z" fill="#0052CC"/>
</svg>
