<svg width="25" height="24" viewBox="0 0 25 24" fill="none" xmlns="http://www.w3.org/2000/svg">
<path d="M8.72381 0C9.24202 0.0338492 9.64476 0.25007 9.9689 0.636918C10.622 1.41683 11.4616 1.83269 12.4848 1.8396C13.4767 1.84651 14.3051 1.46242 14.9645 0.726722C15.626 -0.010362 16.1463 -0.135397 17.0659 0.221056C18.288 0.694945 19.4009 1.3519 20.413 2.17878C20.998 2.65682 21.1719 3.26887 20.9256 3.98246C20.2377 5.97542 21.3833 7.93592 23.4589 8.31793C24.2317 8.46023 24.6658 8.89751 24.8097 9.65532C25.0762 11.0611 25.0567 12.4648 24.7896 13.8671C24.6609 14.5427 24.1483 15.0249 23.4492 15.1313C21.3006 15.4567 20.0868 17.5118 20.8491 19.5345C21.1232 20.2612 20.9542 20.8946 20.3532 21.3844C19.3815 22.1768 18.3124 22.8088 17.1487 23.2834C16.4468 23.5694 15.7645 23.3912 15.2845 22.8006C13.846 21.0287 11.408 21.0584 10.0176 22.8662C9.53555 23.4927 8.86223 23.6841 8.12353 23.4029C6.87497 22.9284 5.72935 22.2769 4.68946 21.4397C4.03771 20.9147 3.86868 20.2791 4.19073 19.5103C4.80841 18.0333 4.33263 16.4072 3.02634 15.5368C2.61734 15.2639 2.16938 15.0905 1.679 15.0242C0.726756 14.8957 0.287846 14.4792 0.136906 13.5286C-0.0787234 12.1705 -0.0355976 10.8152 0.237764 9.4688C0.38314 8.75382 0.88813 8.31517 1.64144 8.215C3.80817 7.92694 5.05603 5.88562 4.31663 3.83947C4.04466 3.08719 4.23177 2.45165 4.86753 1.96049C5.86012 1.19094 6.94661 0.588562 8.12423 0.151285C8.31621 0.0801329 8.52349 0.0490468 8.72381 0ZM16.6715 11.7643C16.6757 9.50749 14.8059 7.64025 12.537 7.63542C10.2207 7.63058 8.34055 9.47502 8.33916 11.7533C8.33777 14.0502 10.1936 15.9029 12.5001 15.9084C14.7997 15.914 16.6666 14.0585 16.6715 11.7643Z" fill="#0052CC"/>
</svg>
