<svg width="25" height="26" viewBox="0 0 25 26" fill="none" xmlns="http://www.w3.org/2000/svg">
<path d="M25 10.2069C25 10.9717 25 11.7366 25 12.5014C24.9844 12.637 24.9628 12.772 24.9544 12.9082C24.8357 14.88 24.5416 16.8191 23.8779 18.6885C23.4886 19.7832 22.9918 20.8212 22.1715 21.6695C21.5495 22.3131 20.8127 22.7219 19.892 22.7239C18.7947 22.7271 17.7482 22.4943 16.7473 22.0464C15.4791 21.4785 14.4033 20.6282 13.3372 19.7571C12.5137 19.0836 11.6824 18.4159 10.8165 17.7991C10.051 17.254 9.17205 17.0264 8.21879 17.0369C6.31552 17.0584 4.41226 17.0278 2.50964 17.0519C1.85762 17.0604 1.37055 16.8087 1.07323 16.2694C0.801335 15.7765 0.556173 15.2497 0.415335 14.7072C-0.108894 12.6924 -0.112806 10.6529 0.268629 8.6127C0.414031 7.83548 0.634416 7.07913 1.09083 6.41406C1.43315 5.91526 1.88826 5.66814 2.51095 5.67271C4.47877 5.68901 6.44723 5.68575 8.4157 5.67206C8.7854 5.66945 9.16423 5.6225 9.52154 5.52796C10.4624 5.28019 11.2272 4.70706 11.9719 4.11045C12.8912 3.37301 13.7851 2.60166 14.7247 1.8903C16.0744 0.867923 17.5675 0.178731 19.285 0.0196367C20.426 -0.0859917 21.3832 0.230893 22.1761 1.05832C22.6879 1.59298 23.0791 2.20784 23.3941 2.87225C24.3258 4.84072 24.7085 6.94351 24.9042 9.09128C24.9368 9.46359 24.9681 9.83525 25 10.2069ZM17.0446 11.2554C17.0551 13.0484 17.192 14.7307 17.5838 16.3842C17.8375 17.4548 18.1615 18.5039 18.7575 19.4389C18.9629 19.7617 19.2413 20.0466 19.521 20.3114C19.7394 20.5187 20.0244 20.5076 20.2578 20.314C20.4625 20.1444 20.6588 19.9553 20.8179 19.7441C21.258 19.1618 21.541 18.4955 21.779 17.8102C22.3156 16.2636 22.5719 14.6635 22.6703 13.0347C22.8125 10.677 22.699 8.33819 22.1174 6.03849C21.8755 5.08262 21.5632 4.14957 21.0357 3.30976C20.8479 3.01048 20.6145 2.72946 20.3569 2.48756C20.0452 2.19415 19.7401 2.20132 19.4213 2.48756C19.2061 2.68056 18.9857 2.89638 18.852 3.14676C18.5325 3.74597 18.2078 4.35301 17.9829 4.99134C17.2572 7.04718 17.0661 9.18974 17.0446 11.2554Z" fill="#0052CC"/>
<path d="M7.23373 25.004C7.0792 24.9571 6.92206 24.9186 6.77144 24.8625C6.08225 24.603 5.59584 24.1283 5.38588 23.4241C4.94055 21.931 4.5213 20.43 4.09813 18.9304C3.98207 18.5189 4.23897 18.1942 4.68626 18.1851C5.15767 18.1747 5.62909 18.1825 6.1005 18.1825C6.86468 18.1825 7.62885 18.1812 8.39303 18.1832C8.90422 18.1845 9.19698 18.2862 9.35933 18.8671C9.50148 19.3744 9.68926 19.8686 9.85748 20.3687C10.0231 20.861 10.1991 20.9973 10.7214 21.0377C11.599 21.1055 12.2895 21.6956 12.4597 22.523C12.6579 23.4854 12.2928 24.3605 11.5045 24.7745C11.3135 24.8749 11.0983 24.929 10.8942 25.0047C9.67426 25.004 8.45432 25.004 7.23373 25.004Z" fill="#0052CC"/>
<path d="M18.1484 11.3572C18.2052 10.4541 18.2541 9.56995 18.3173 8.68646C18.3532 8.1844 18.6766 7.97249 19.1591 8.11268C20.5968 8.52997 21.5964 9.88684 21.5827 11.4028C21.569 12.9031 20.5479 14.2365 19.1108 14.6316C18.6753 14.7516 18.3558 14.5358 18.3206 14.0644C18.2534 13.1574 18.2045 12.2485 18.1484 11.3572Z" fill="#0052CC"/>
</svg>
