<svg width="18" height="18" viewBox="0 0 18 18" fill="none" xmlns="http://www.w3.org/2000/svg">
<path d="M6.79433 18C6.37617 17.8553 6.22348 17.561 6.2256 17.1234C6.23726 14.9386 6.22524 12.7538 6.23373 10.569C6.23691 9.71744 5.92232 9.02929 5.28219 8.46889C4.23274 7.54958 3.17552 6.63769 2.15824 5.6838C0.746485 4.36043 0.045911 2.70462 0.000313554 0.773556C-0.0109974 0.298553 0.284502 0.0014116 0.758503 0.0010587C6.26165 0.000705799 11.7648 0.0010587 17.2679 0C17.5631 0 17.7918 0.111516 17.9378 0.370545C17.9682 0.424185 17.9858 0.490883 17.9894 0.552641C18.0452 1.49171 17.8794 2.39372 17.5274 3.26362C17.1085 4.29761 16.4695 5.17351 15.6328 5.91072C14.6434 6.78273 13.658 7.66004 12.6718 8.53558C12.0812 9.05999 11.791 9.71709 11.7931 10.5072C11.7966 11.8133 11.7899 13.1198 11.7966 14.4258C11.7984 14.7561 11.6725 14.9926 11.3975 15.1747C10.0628 16.0566 8.73275 16.9459 7.39946 17.8299C7.29837 17.897 7.18385 17.9435 7.07569 18C6.98202 18 6.888 18 6.79433 18Z" fill="#0052CC"/>
</svg>
