<svg width="8" height="13" viewBox="0 0 8 13" fill="none" xmlns="http://www.w3.org/2000/svg">
<path d="M6.8199 0C6.9519 0.0379705 7.09289 0.0584162 7.21589 0.116832C8.06786 0.519904 8.24185 1.52466 7.56987 2.17893C6.13293 3.58091 4.69298 4.97998 3.25603 6.37905C3.22303 6.41118 3.18103 6.43747 3.13603 6.47544C3.18403 6.52509 3.22003 6.56306 3.25303 6.59519C4.69598 8.00302 6.14192 9.40793 7.58487 10.8158C7.95986 11.1809 8.08886 11.6161 7.93886 12.1184C7.68387 12.9742 6.55891 13.2868 5.86893 12.6968C5.81194 12.65 5.76094 12.5975 5.70994 12.5478C4.036 10.9209 2.36506 9.2911 0.691116 7.66421C0.637118 7.61163 0.57712 7.56198 0.514122 7.51525C-0.166854 7.02163 -0.172853 5.97014 0.505123 5.46776C0.57412 5.41811 0.640118 5.36261 0.700116 5.30127C2.32006 3.72403 3.943 2.14972 5.55695 0.569558C5.84494 0.292081 6.14492 0.0554954 6.55891 0C6.64591 0 6.7329 0 6.8199 0Z" fill="#0052CC"/>
</svg>
