<svg width="23" height="17" viewBox="0 0 23 17" fill="none" xmlns="http://www.w3.org/2000/svg">
<path d="M0.000600115 8.19391C0.0402077 8.0696 0.0768147 7.94409 0.120623 7.82096C0.474091 6.82584 1.48108 6.26227 2.54569 6.46177C3.55568 6.6512 4.26382 7.55812 4.22661 8.61422C4.1912 9.61408 3.37325 10.4707 2.34765 10.5814C1.31245 10.6927 0.351067 10.0403 0.0744142 9.03986C0.0534102 8.96349 0.0252048 8.88949 0 8.81431C0.000600115 8.60712 0.000600115 8.40051 0.000600115 8.19391Z" fill="black"/>
<path d="M0 14.6137C0.115222 14.1573 0.294656 13.737 0.650524 13.4043C1.35206 12.7472 2.40226 12.6306 3.22082 13.1261C4.04297 13.6239 4.41925 14.6001 4.14019 15.5106C3.86474 16.4098 2.98977 17.0343 2.05899 16.9959C1.08021 16.9556 0.26045 16.2867 0.0492094 15.3566C0.036607 15.3004 0.0168032 15.2454 0 15.1897C0 14.9979 0 14.8061 0 14.6137Z" fill="black"/>
<path d="M0 1.80946C0.0612117 1.62121 0.10622 1.42585 0.186636 1.24589C0.610317 0.299898 1.66292 -0.187896 2.67951 0.0814563C3.6799 0.346665 4.33223 1.30449 4.21881 2.34283C4.11019 3.33678 3.27063 4.10695 2.22343 4.17325C1.21283 4.23718 0.282654 3.54219 0.0504096 2.55062C0.0372071 2.49438 0.0168032 2.44051 0 2.38546C0 2.19306 0 2.00126 0 1.80946Z" fill="black"/>
<path d="M14.3624 4.18251C12.2446 4.18251 10.1268 4.18488 8.00958 4.18133C7.01999 4.18015 6.25365 3.6888 5.92418 2.85765C5.39128 1.51563 6.33046 0.0948654 7.81034 0.00488387C7.87756 0.000739979 7.94477 0.000147996 8.01198 0.000147996C12.2626 0.000147996 16.5126 -0.000443988 20.7632 0.00073998C21.844 0.00133196 22.6752 0.609299 22.9308 1.57956C23.2561 2.81444 22.3607 4.06412 21.0735 4.16594C20.8946 4.18015 20.7146 4.18192 20.5352 4.18192C18.478 4.18311 16.4202 4.18251 14.3624 4.18251Z" fill="black"/>
<path d="M14.3995 12.821C16.5173 12.821 18.6351 12.8192 20.7523 12.8215C21.7623 12.8227 22.5407 13.3259 22.8623 14.176C23.3694 15.5151 22.4243 16.9127 20.9528 16.9992C20.8934 17.0027 20.8334 17.0033 20.7733 17.0033C16.5155 17.0033 12.2577 17.0045 7.9999 17.0027C6.89809 17.0021 6.05613 16.3586 5.82388 15.3499C5.54723 14.1464 6.442 12.9393 7.68724 12.8381C7.83607 12.8263 7.9861 12.8221 8.13553 12.8221C10.2239 12.821 12.3117 12.821 14.3995 12.821Z" fill="black"/>
<path d="M14.3755 10.5894C12.2277 10.5894 10.0805 10.593 7.93269 10.5882C6.87649 10.5859 6.03813 9.91693 5.81909 8.91885C5.54784 7.68279 6.52062 6.43844 7.80307 6.42482C9.59141 6.40588 11.3798 6.41772 13.1681 6.41772C15.7348 6.41712 18.3015 6.41357 20.8682 6.42008C22.0678 6.42304 23.0016 7.34713 23.0004 8.50624C22.9992 9.65587 22.0702 10.5823 20.8856 10.5871C18.7156 10.5953 16.5455 10.5894 14.3755 10.5894Z" fill="black"/>
</svg>
