<svg width="15" height="15" viewBox="0 0 15 15" fill="none" xmlns="http://www.w3.org/2000/svg">
<path d="M15.0001 7.99747C14.9821 8.12739 14.9684 8.25769 14.9457 8.38682C14.8804 8.76209 14.542 9.0227 14.1669 8.99022C13.7894 8.95774 13.4976 8.64548 13.5019 8.26474C13.5043 8.03073 13.534 7.79712 13.5355 7.56312C13.5547 4.65962 11.564 2.19164 8.72449 1.59333C5.45426 0.904627 2.22003 3.06425 1.58241 6.3622C0.933451 9.71883 3.21752 12.9726 6.5785 13.4699C8.04228 13.6867 9.411 13.4065 10.6764 12.636C10.8435 12.5343 11.016 12.4631 11.2151 12.4909C11.5363 12.5359 11.7745 12.7566 11.8418 13.0645C11.909 13.3736 11.7862 13.6679 11.5069 13.8444C10.8806 14.2404 10.2125 14.5499 9.49314 14.7268C9.04055 14.8383 8.57427 14.8939 8.11386 14.9749C8.07592 14.9815 8.03876 14.9913 8.0012 14.9995C7.65971 14.9995 7.31782 14.9995 6.97632 14.9995C6.94425 14.9909 6.91217 14.9772 6.8797 14.9745C6.23935 14.9244 5.61895 14.7855 5.01302 14.5738C1.53586 13.3592 -0.559274 9.72979 0.131151 6.11332C0.904113 2.06603 4.74428 -0.588995 8.81015 0.112229C11.8926 0.644016 14.3609 3.11395 14.8839 6.19276C14.9297 6.4612 14.9614 6.73159 15.0001 7.0012C15.0001 7.33342 15.0001 7.66564 15.0001 7.99747Z" fill="black"/>
<path d="M6.38287 8.50501C6.94968 7.93684 7.48677 7.39761 8.02424 6.85917C8.64817 6.23425 9.27131 5.60816 9.89758 4.98559C10.1968 4.68781 10.6162 4.66198 10.9135 4.91516C11.2201 5.17616 11.262 5.62812 11.007 5.9396C10.9729 5.98108 10.9342 6.01864 10.8966 6.0566C9.59324 7.36161 8.28985 8.66662 6.98606 9.97124C6.59724 10.3602 6.1908 10.3586 5.8008 9.9685C5.22108 9.38859 4.63901 8.8118 4.0632 8.22797C3.64778 7.80692 3.82811 7.12878 4.39101 6.98831C4.66913 6.91865 4.9101 7.00122 5.11194 7.20392C5.49764 7.59092 5.88491 7.97675 6.27021 8.36414C6.30816 8.4021 6.3375 8.44749 6.38287 8.50501Z" fill="black"/>
</svg>
