<svg width="54" height="46" viewBox="0 0 54 46" fill="none" xmlns="http://www.w3.org/2000/svg">
<path d="M32.3035 20.0724V0.6875H53.9985V15.9946C53.9985 24.2708 52.7932 30.2771 50.4028 33.9934C47.2489 38.9351 42.2671 42.6715 35.4573 45.2226L30.5156 38.7342C34.6337 37.3079 37.667 35.1987 39.6155 32.3864C41.564 29.5741 42.6488 25.4761 42.8697 20.0925H32.3035V20.0724Z" fill="#0052CC"/>
<path d="M2.61596 20.0724V0.6875H24.311V15.9946C24.311 24.2708 23.1057 30.2771 20.7153 33.9934C17.5614 38.9351 12.5796 42.6715 5.76978 45.2226L0.828125 38.7342C4.94617 37.3079 7.97946 35.1987 9.928 32.3864C11.8765 29.5741 12.9613 25.4761 13.1822 20.0925H2.61596V20.0724Z" fill="#0052CC"/>
</svg>
