<svg width="324" height="243" viewBox="0 0 324 243" fill="none" xmlns="http://www.w3.org/2000/svg">
<path d="M185.99 240.474C183.926 240.694 181.974 240.479 180.359 238.997C180.319 237.94 179.961 236.933 179.961 235.85C179.986 199.648 179.976 163.452 179.997 127.251C179.997 124.854 180.646 122.545 181.698 120.393C184.156 115.376 186.695 110.404 189.168 105.397C192.035 99.5872 194.881 93.7724 197.712 87.9475C199.551 84.1715 201.845 80.7787 205.683 78.7809C215.544 73.6458 225.595 68.9041 235.441 63.728C239.237 61.7302 243.202 59.9827 247.06 58.0717C253.948 54.6534 260.795 51.1482 267.718 47.8014C269.44 46.9686 271.029 45.7831 272.991 45.4766C275.725 45.6094 277.115 47.0094 277.115 49.6869C277.12 78.8933 277.12 108.1 277.115 137.306C277.115 137.868 277.038 138.43 276.997 138.987C270.963 137.654 265.312 138.773 259.665 141.966C260.13 139.892 260.146 138.144 260.023 136.407C259.885 134.435 259.241 134.077 257.525 134.935C238.512 144.429 219.519 153.958 200.481 163.401C198.146 164.561 196.986 166.109 197.293 168.715C197.359 169.272 197.308 169.844 197.318 170.406C197.359 173.375 197.778 173.63 200.466 172.281C217.174 163.922 233.882 155.558 250.596 147.214C251.214 146.907 251.797 146.345 252.732 146.565C252.533 146.866 252.435 147.112 252.262 147.26C248.123 150.877 244.745 155.139 241.782 159.748C241.266 160.55 240.53 160.933 239.748 161.326C227.296 167.55 214.921 173.932 202.351 179.9C198.473 181.739 196.705 183.967 197.262 188.249C197.584 190.732 197.845 191.095 200.057 189.991C209.423 185.311 218.779 180.61 228.15 175.95C230.388 174.836 232.539 173.543 234.92 172.721L234.981 172.782C234.179 176.318 232.809 179.69 232.115 183.262C230.015 194.115 229.902 204.686 236.095 214.471C235.727 215.371 234.884 215.687 234.102 216.076C227.531 219.336 220.96 222.596 214.389 225.85C209.438 228.303 204.375 230.546 199.572 233.259C196.72 234.874 193.179 235.426 191.11 238.354C190.839 238.737 190.369 238.348 190.093 238.445C188.637 238.926 186.966 239.018 185.99 240.474ZM197.313 150.371C197.313 151.138 197.313 151.45 197.313 151.766C197.318 154.929 197.717 155.185 200.481 153.8C219.371 144.347 238.256 134.879 257.172 125.477C259.19 124.476 260.084 123.045 260.059 120.894C260.049 120.077 260.069 119.264 260.054 118.447C260.008 115.897 259.4 115.514 257.157 116.638C238.486 125.973 219.836 135.349 201.13 144.598C198.376 145.962 196.649 147.551 197.313 150.371ZM213.47 121.691C213.47 122.519 213.47 122.897 213.47 123.27C213.475 126.402 213.822 126.607 216.678 125.181C224.793 121.124 232.886 117.021 241.036 113.036C243.126 112.014 244.035 110.527 243.913 108.279C243.877 107.594 243.907 106.899 243.907 106.214C243.897 103.332 243.397 103.005 240.888 104.262C232.993 108.207 225.145 112.244 217.189 116.061C214.456 117.363 212.857 118.978 213.47 121.691Z" fill="#696969"/>
<path d="M106.943 242.029C103.586 240.787 100.495 238.983 97.3113 237.394C65.407 221.473 33.5231 205.511 1.61882 189.589C0.45894 189.012 0.00929604 188.368 0.00929604 187.029C0.0501728 154.174 0.0399536 121.32 0.0552824 88.4651C0.0552824 87.8111 -0.210416 87.0702 0.423173 86.5234C0.607119 86.6818 0.780845 86.8658 0.980119 86.9986C4.41888 89.2724 8.46056 90.4067 11.8329 92.798C12.2519 93.0944 12.7322 93.2374 13.238 92.9411C13.3504 93.309 13.5957 93.5491 13.9585 93.6718L14.1067 93.7024L14.26 93.6973C16.5491 95.4959 19.2674 96.5331 21.8017 97.8718C38.648 106.763 55.5455 115.556 72.4327 124.375C82.3249 129.536 92.1966 134.732 102.14 139.791C104.056 140.767 104.7 142.029 104.7 144.063C104.71 154.588 105.134 165.109 105.384 175.63C105.635 186.212 105.824 196.799 106.156 207.381C106.406 215.398 106.473 223.42 106.621 231.442C106.713 233.956 106.217 236.495 106.953 238.984C106.943 240 106.943 241.012 106.943 242.029ZM90.1527 198.812C90.1425 184.996 90.1323 171.184 90.1221 157.368C90.117 152.749 90.1221 152.749 85.7789 150.986C85.7227 150.966 85.6563 150.971 85.595 150.961C82.3197 149.085 78.973 147.353 75.478 145.912C73.7816 144.737 71.8808 143.965 70.0363 143.076C66.6537 141.354 63.3376 139.51 59.8273 138.059C58.0696 136.899 56.1433 136.066 54.2425 135.192C50.8855 133.424 47.5438 131.631 44.0438 130.159C38.3823 127.094 32.6443 124.176 26.7682 121.539C24.1981 119.858 21.3061 118.791 18.6491 117.278C17.1673 116.43 16.9272 116.89 16.9272 118.397C16.9629 136.802 16.9476 155.207 16.9578 173.611C16.9578 174.199 16.7074 174.884 17.3308 175.354C17.4228 176.335 18.3272 176.401 18.9506 176.718C23.9784 179.268 29.0267 181.776 34.0698 184.296C52.0556 193.288 70.0414 202.276 88.0323 211.264C89.8871 212.189 90.0148 212.112 90.0148 210.094C90.0199 207.462 89.9943 204.831 89.9841 202.2C90.4849 201.096 90.3111 199.951 90.1527 198.812Z" fill="#6CA7FF"/>
<path d="M106.945 242.026C106.945 241.009 106.945 239.998 106.945 238.981C106.996 236.452 107.053 233.922 107.104 231.388C107.139 230.954 107.206 230.519 107.216 230.08C107.472 214.358 107.732 198.636 107.967 182.913C108.161 169.567 108.356 156.221 108.458 142.88C108.468 141.26 109.025 140.453 110.43 139.737C121.932 133.892 133.398 127.97 144.879 122.078C150.668 119.11 156.473 116.162 162.272 113.203C162.114 114.562 161.531 115.829 161.536 117.24C161.557 149.778 161.562 182.315 161.567 214.853C148.067 221.624 134.563 228.373 121.078 235.169C116.608 237.422 112.04 239.471 107.702 241.99C107.436 242.001 107.191 242.011 106.945 242.026Z" fill="#94BFFF"/>
<path d="M13.2367 92.9378C12.736 93.2341 12.2506 93.0911 11.8316 92.7947C8.45926 90.4034 4.41247 89.264 0.978821 86.9953C0.774437 86.8625 0.60582 86.6785 0.421875 86.5201C4.4278 84.0828 8.73007 82.2281 12.8893 80.0974C18.5047 77.2156 24.1764 74.4462 29.8123 71.6052C34.2729 69.357 38.7132 67.073 43.1687 64.8197C43.3833 64.7124 43.6593 64.7328 43.9045 64.6919C44.1344 69.9242 44.0578 75.1564 43.9454 80.3886C40.6088 82.0032 37.2672 83.6128 33.4656 85.4471C37.262 87.2815 40.5986 88.891 43.9301 90.5056C47.2615 92.4217 50.7156 94.0874 54.2055 95.6765C55.8967 96.7035 57.6595 97.5824 59.4888 98.3182C62.9224 100.224 66.4378 101.966 70.0248 103.566C71.7058 104.608 73.4635 105.497 75.303 106.223C78.7008 107.929 82.1038 109.631 85.5017 111.337C87.3105 112.39 89.1653 113.356 91.1172 114.122C95.91 116.559 100.713 118.971 105.48 121.46C106.548 122.016 107.381 121.96 108.439 121.424C115.904 117.632 123.4 113.913 130.885 110.157C144.145 103.51 157.404 96.8517 170.668 90.199C174.868 88.1194 179.074 86.0398 183.596 83.7967C179.012 81.5383 174.863 79.4995 170.714 77.4557C170.587 72.1979 170.515 66.9453 170.735 61.6875C177.198 64.9014 183.677 68.0745 190.116 71.3446C192.543 72.576 195.179 73.4396 197.31 75.233C197.305 75.7542 196.87 75.9279 196.564 76.2294C194.954 77.7929 193.12 79.193 192.073 81.2266C189.886 85.488 187.811 89.8107 185.66 94.0925C184.326 96.7495 183.35 99.5905 181.496 101.972C178.215 103.489 174.92 104.971 171.66 106.524C160.24 111.966 148.83 117.428 137.425 122.895C127.712 127.55 117.999 132.21 108.306 136.901C107.376 137.35 106.594 137.401 105.649 136.942C101.99 135.174 98.2859 133.498 94.6223 131.75C80.2746 124.903 65.9269 118.057 51.5893 111.179C40.8081 106.008 30.0677 100.755 19.2558 95.651C17.6565 94.8948 16.1799 93.6684 14.2484 93.6991L14.0951 93.7042L13.947 93.6736C13.9521 93.1933 13.6864 92.9735 13.2367 92.9378Z" fill="#94BFFF"/>
<path d="M181.496 101.963C183.35 99.5821 184.326 96.7412 185.66 94.0842C187.811 89.8023 189.886 85.4796 192.072 81.2182C193.115 79.1846 194.954 77.7846 196.564 76.221C196.875 75.9196 197.305 75.7459 197.31 75.2247C198.194 75.3371 198.868 74.821 199.589 74.4633C212.812 67.8566 226.026 61.2295 239.26 54.6432C247.547 50.5147 255.881 46.4781 264.169 42.3393C265.405 41.7211 266.601 41.5167 267.735 42.2014C269.498 43.2693 271.864 43.3868 272.998 45.4664C271.041 45.773 269.447 46.9584 267.725 47.7913C260.802 51.138 253.955 54.6432 247.067 58.0615C243.204 59.9776 239.244 61.7251 235.448 63.7179C225.607 68.8939 215.551 73.6356 205.69 78.7707C201.852 80.7686 199.558 84.1614 197.719 87.9373C194.883 93.7623 192.042 99.5821 189.175 105.387C186.702 110.394 184.163 115.371 181.705 120.383C180.653 122.534 180.004 124.844 180.004 127.24C179.978 163.442 179.993 199.638 179.968 235.84C179.968 236.928 180.325 237.929 180.366 238.987C178.762 238.302 177.127 237.689 175.568 236.913C173.611 235.942 172.6 234.435 172.794 232.079C172.983 229.78 172.83 227.45 172.835 225.13C172.84 224.236 172.748 223.873 171.675 224.42C166.024 227.307 160.316 230.091 154.634 232.917C149.295 235.574 143.869 238.078 138.662 240.975C136.296 242.288 133.966 242.38 131.473 242.37C124.335 242.349 117.196 242.359 110.058 242.359C109.246 242.359 108.423 242.446 107.688 241.971C112.02 239.452 116.594 237.398 121.064 235.15C134.549 228.359 148.058 221.604 161.553 214.834C164.7 213.281 167.807 211.646 171.006 210.21C172.446 209.566 172.825 208.708 172.825 207.195C172.779 181.044 172.779 154.888 172.794 128.737C172.794 126.3 172.472 123.822 173.06 121.426C174.587 115.207 178.077 109.857 180.857 104.196C181.112 103.476 181.542 102.786 181.496 101.963Z" fill="#ABABAB"/>
<path d="M289.536 145.599C291.442 145.962 292.863 147.091 294.115 148.491C293.593 150.458 292.382 152.088 291.452 153.851C286.455 163.319 281.535 172.828 276.42 182.235C274.902 185.025 273.845 188.085 271.729 190.543C271.152 190.078 270.58 189.608 270.002 189.148C268.556 188.009 267.494 186.353 265.567 185.857C264.162 184.922 262.762 183.982 260.984 183.957C260.279 182.306 258.925 182.69 257.821 183.175C254.888 184.463 253.693 187.033 253.401 190.042C253.258 191.504 253.033 193.154 254.444 194.212C255.808 195.234 256.932 196.485 258.169 197.63C258.639 198.064 259.088 198.494 259.809 198.315L259.804 198.31C260.309 199.827 261.382 200.767 262.844 201.314L262.823 201.304C262.808 201.845 263.074 202.091 263.61 202.06L263.569 202.05C264.515 203.276 265.404 204.574 266.993 205.075L266.957 205.07C267.422 205.994 268.056 206.674 269.195 206.623C270.35 207.44 271.408 208.442 272.925 208.57L272.92 208.529C272.92 208.82 273.129 208.881 273.354 208.932C275.858 210.44 277.284 210.23 279.246 208.084C279.93 207.333 280.406 206.459 280.871 205.575C287.431 193.2 293.987 180.825 300.583 168.47C300.849 167.969 300.788 166.972 301.845 167.177C302.188 176.139 300.553 184.759 297.303 193.093C297.17 193.435 297.104 193.808 297.007 194.171C294.901 198.494 292.878 202.857 290.129 206.827C283.717 216.086 276.078 223.776 264.683 226.637C260.468 227.215 256.36 227.148 252.645 224.675C245.921 218.559 243.949 210.634 243.877 201.932C243.785 190.957 246.82 180.799 251.884 171.198C256.625 162.2 262.803 154.382 271.648 149.048C277.135 145.732 283.017 143.862 289.536 145.599Z" fill="#94BFFF"/>
<path d="M170.744 61.6894C170.53 66.942 170.601 72.1998 170.724 77.4576C170.673 78.5919 170.622 79.7211 170.571 80.8555C170.264 80.9168 169.927 80.9117 169.661 81.0445C161.854 85.0147 154.056 89.0002 146.254 92.9703C134.993 98.6982 123.741 104.446 112.454 110.123C108.77 111.978 105.173 114.017 101.325 115.545C101.325 107.017 101.32 98.4887 101.32 89.9608C102.337 89.4754 103.359 89.0104 104.366 88.5045C122.505 79.3175 140.649 70.1406 158.778 60.9229C162.615 58.9762 166.544 57.2083 170.203 54.9141C171.092 55.9104 170.525 57.1061 170.632 58.2046C170.739 59.3594 170.709 60.5295 170.744 61.6894Z" fill="#94BFFF"/>
<path d="M234.914 172.716C232.538 173.533 230.382 174.831 228.144 175.945C218.768 180.605 209.418 185.306 200.052 189.986C197.834 191.095 197.579 190.732 197.257 188.244C196.7 183.962 198.468 181.734 202.346 179.895C214.921 173.932 227.291 167.545 239.743 161.322C240.525 160.928 241.261 160.545 241.777 159.743C244.735 155.139 248.112 150.878 252.256 147.255C252.43 147.102 252.527 146.856 252.726 146.56C251.791 146.335 251.209 146.897 250.591 147.209C233.877 155.553 217.169 163.917 200.46 172.277C197.773 173.62 197.349 173.37 197.313 170.401C197.308 169.839 197.354 169.267 197.287 168.71C196.981 166.104 198.141 164.556 200.476 163.396C219.514 153.953 238.506 144.424 257.519 134.93C259.236 134.072 259.88 134.43 260.018 136.402C260.14 138.139 260.125 139.887 259.66 141.961C265.306 138.768 270.957 137.649 276.992 138.982C277.074 139.315 277.155 139.647 277.237 139.979C275.423 140.045 273.609 139.846 271.801 140.152C264.724 141.358 258.945 145.022 253.932 149.891C243.989 159.559 237.883 171.418 235.032 184.902C232.917 194.897 232.881 204.804 237.919 214.155C237.341 214.446 236.784 214.845 236.095 214.461C229.907 204.676 230.014 194.105 232.114 183.252C232.804 179.68 234.179 176.308 234.981 172.772C235.027 172.706 235.073 172.639 235.119 172.578C235.052 172.624 234.986 172.67 234.914 172.716ZM253.278 146.212C253.242 146.177 253.212 146.11 253.176 146.105C253.14 146.1 253.094 146.161 253.053 146.192C253.089 146.228 253.125 146.289 253.166 146.289C253.207 146.294 253.248 146.233 253.278 146.212Z" fill="white"/>
<path d="M122.761 5.1875C123.66 5.1875 123.481 5.86197 123.481 6.38825C123.471 10.3737 123.451 14.3592 123.43 18.3498C122.628 18.3192 122.005 18.779 121.34 19.1163C114.913 22.3762 108.495 25.6514 102.067 28.9113C88.4245 35.8195 74.787 42.743 61.1239 49.6103C58.8961 50.7293 56.7757 52.1191 54.3282 52.7783C54.2822 48.5628 54.2362 44.3474 54.1953 40.132C63.4743 35.4618 72.7585 30.807 82.0273 26.1113C95.1027 19.4893 108.163 12.8366 121.218 6.18387C121.754 5.90284 122.419 5.78532 122.761 5.1875Z" fill="#94BFFF"/>
<path d="M237.915 214.164C232.877 204.818 232.913 194.906 235.028 184.911C237.885 171.427 243.986 159.568 253.929 149.9C258.941 145.026 264.725 141.367 271.797 140.162C273.611 139.855 275.425 140.054 277.234 139.988C280.764 140.708 283.937 142.287 286.993 144.127C286.554 144.132 286.099 144.219 285.68 144.132C279.768 142.926 274.633 145.026 269.661 147.857C264.429 150.835 260.239 154.969 256.499 159.629C250.71 166.844 246.683 174.963 244.047 183.767C242.085 190.322 241.293 197.072 241.717 203.929C241.967 207.94 242.913 211.783 244.435 215.518C245.672 218.553 247.843 220.862 249.984 223.213C248.569 223.31 247.624 222.022 246.264 221.951C242.938 219.943 239.893 217.628 237.915 214.164Z" fill="#2469D0"/>
<path d="M139.263 24.1436C139.227 27.6283 139.186 31.108 139.15 34.5927C138.466 34.8993 137.766 35.1701 137.101 35.5073C129.774 39.2169 122.457 42.9418 115.13 46.6565C106.076 51.25 97.0421 55.8793 87.9624 60.4217C82.025 63.3904 76.1847 66.5634 70.1094 69.2562C69.4605 68.735 69.7007 68.0043 69.6956 67.3554C69.67 64.5809 69.6802 61.8013 69.6802 59.0268C70.5233 58.618 71.3715 58.2246 72.2095 57.8005C93.7617 46.8915 115.309 35.9723 136.866 25.0735C137.623 24.6903 138.302 24.0414 139.263 24.1436Z" fill="#94BFFF"/>
<path d="M265.568 185.869C267.494 186.36 268.557 188.02 270.003 189.16C270.586 189.615 271.158 190.09 271.73 190.555C272.359 191.377 273.094 192.088 274.014 192.583C274.602 193.672 275.67 194.249 276.543 195.041C277.371 195.797 277.632 195.383 278.02 194.653C279.66 191.561 281.357 188.496 282.997 185.404C287.769 176.396 292.516 167.373 297.293 158.364C298.811 155.498 300.298 152.606 301.964 149.821C302.863 148.319 304.079 146.97 306.153 147.149C308.356 147.69 309.388 150.051 308.473 152.872C307.354 156.321 305.326 159.345 303.706 162.559C302.955 164.051 301.902 165.426 301.841 167.194C300.783 166.989 300.845 167.991 300.579 168.486C293.982 180.841 287.427 193.217 280.866 205.592C280.396 206.476 279.926 207.355 279.241 208.101C277.279 210.247 275.853 210.457 273.35 208.949C273.207 208.816 273.059 208.679 272.915 208.546L272.921 208.587C272.762 208.326 272.65 208.009 272.43 207.815C269.058 204.754 265.685 201.689 262.282 198.664C260.959 197.489 259.707 196.41 259.743 194.341C259.825 190.299 261.695 187.428 265.568 185.869Z" fill="white"/>
<path d="M170.196 54.9168C166.542 57.211 162.608 58.9738 158.771 60.9257C140.642 70.1383 122.498 79.3202 104.358 88.5073C103.357 89.0131 102.33 89.4781 101.313 89.9635C98.0021 88.3182 94.686 86.6729 91.375 85.0328C91.7684 84.297 92.5655 84.159 93.2145 83.832C113.162 73.6997 133.115 63.5878 153.068 53.4606C153.727 53.1234 154.494 52.9343 154.959 52.2803C155.71 51.989 156.619 51.8715 157.187 51.3708C159.481 49.3423 161.642 49.9299 163.906 51.3912C165.924 52.689 168.397 53.2051 170.196 54.9168Z" fill="#2469D0"/>
<path d="M122.765 5.1904C122.428 5.79333 121.764 5.90575 121.222 6.18166C108.162 12.8344 95.1018 19.487 82.0315 26.1091C72.7627 30.8048 63.4786 35.4596 54.1995 40.1298C50.8987 38.5714 47.5877 37.0232 44.4453 35.148C44.6599 34.4275 45.365 34.3457 45.8964 34.08C56.8821 28.5055 67.8728 22.9462 78.8584 17.3819C87.6878 12.911 96.5478 8.50653 105.311 3.913C107.579 2.72247 110.007 1.84873 112.142 0.402713C112.597 0.0910274 113.118 -0.169562 113.726 0.137014C116.634 1.61369 119.546 3.06992 122.443 4.56192C122.612 4.64368 122.658 4.97069 122.765 5.1904Z" fill="#2469D0"/>
<path d="M139.283 37.9671C142.819 35.4481 146.268 34.9933 149.952 37.8751C151.276 38.9124 153.151 39.2343 154.382 40.5525C153.979 41.181 153.263 41.3292 152.665 41.6307C130.28 52.9689 107.885 64.2917 85.4946 75.6197C82.1938 74.0255 79.077 72.0532 75.6484 70.7094C75.8273 70.0605 76.4506 69.9583 76.931 69.713C92.5408 61.7829 108.166 53.8682 123.776 45.933C128.962 43.3117 134.118 40.6292 139.283 37.9671Z" fill="#2469D0"/>
<path d="M139.268 24.1507C138.313 24.0485 137.633 24.6974 136.872 25.0806C115.315 35.9794 93.7675 46.8935 72.2153 57.8076C71.3824 58.2317 70.5291 58.6251 69.686 59.0339C66.5283 57.1995 63.2786 55.5389 59.9062 54.1287C60.1106 53.4031 60.8106 53.3111 61.3472 53.0403C74.7547 46.2292 88.1776 39.4335 101.585 32.6224C108.902 28.9026 116.199 25.1521 123.505 21.417C127.159 18.6221 130.776 18.6834 134.471 21.417C135.947 22.5054 137.909 22.812 139.268 24.1507Z" fill="#2469D0"/>
<path d="M264.68 226.646C276.074 223.785 283.713 216.09 290.125 206.836C292.874 202.866 294.898 198.502 297.003 194.18C298.648 194.21 299.961 195.207 301.331 195.871C308.249 199.243 315.086 202.779 321.943 206.279C322.398 206.514 323.2 206.545 323.128 207.26C323.077 207.797 322.393 207.878 321.958 208.093C309.578 214.26 297.192 220.417 284.817 226.595C284.347 226.83 283.897 226.948 283.391 226.948C277.505 226.948 271.613 226.948 265.727 226.948C265.349 226.948 264.971 226.942 264.68 226.646Z" fill="#ABABAB"/>
<path d="M85.5002 75.6296C107.89 64.3017 130.286 52.9788 152.671 41.6406C153.269 41.3392 153.984 41.191 154.388 40.5625C154.929 40.7362 154.914 41.1961 154.909 41.6253C154.883 44.0421 154.853 46.4641 154.822 48.8809C150.254 51.2109 145.691 53.5562 141.118 55.876C128.952 62.0381 116.786 68.2105 104.605 74.342C98.4071 77.4589 92.1683 80.4991 85.9448 83.5751C85.3163 83.1203 85.5156 82.4458 85.5105 81.8429C85.4849 79.7735 85.5002 77.7041 85.5002 75.6296Z" fill="#94BFFF"/>
<path d="M237.918 214.164C239.896 217.628 242.941 219.943 246.278 221.946C245.961 222.569 245.307 222.702 244.76 222.978C233.514 228.609 222.262 234.229 211.016 239.86C210.28 240.228 209.565 240.524 208.707 240.519C201.134 240.489 193.557 240.489 185.984 240.478C186.96 239.022 188.631 238.93 190.082 238.445C190.363 238.353 190.828 238.736 191.099 238.353C193.174 235.425 196.709 234.868 199.561 233.259C204.364 230.545 209.427 228.297 214.378 225.85C220.954 222.595 227.52 219.335 234.091 216.075C234.873 215.687 235.716 215.37 236.084 214.471C236.784 214.854 237.341 214.455 237.918 214.164Z" fill="#ABABAB"/>
<path d="M44.4349 35.1484C47.5773 37.0288 50.8833 38.5719 54.1892 40.1303C54.2351 44.3457 54.2811 48.5611 54.322 52.7714C54.2811 53.1444 54.2096 53.5123 54.2096 53.8853C54.2096 66.5111 54.2147 79.142 54.2198 91.7678C53.4687 91.9927 52.9015 91.5175 52.2986 91.2262C49.5548 89.9028 46.8109 88.5641 44.0722 87.2356C44.0262 84.9516 43.9802 82.6626 43.9393 80.3786C44.0517 75.1463 44.1284 69.9141 43.8984 64.6819C43.9342 57.5438 43.9751 50.4057 44.0108 43.2676C44.0211 41.1369 43.9955 39.0062 44.0211 36.8755C44.0262 36.2828 43.8065 35.6032 44.4349 35.1484Z" fill="#6CA7FF"/>
<path d="M54.2236 91.7701C54.2185 79.1443 54.2133 66.5133 54.2133 53.8875C54.2133 53.5145 54.2849 53.1415 54.3258 52.7737C56.7733 52.1145 58.8886 50.7247 61.1215 49.6057C74.7846 42.7384 88.4221 35.82 102.065 28.9067C108.493 25.6519 114.91 22.3716 121.338 19.1116C122.002 18.7744 122.631 18.3145 123.428 18.3452C123.453 19.3671 123.479 20.3839 123.505 21.4059C116.198 25.141 108.896 28.8914 101.584 32.6112C88.1768 39.4274 74.7539 46.218 61.3463 53.0291C60.8149 53.2999 60.1098 53.3919 59.9054 54.1175C59.3229 61.6132 59.6448 69.1192 59.6193 76.6201C59.5989 82.8078 59.3689 89.0007 59.9208 95.1782C58.9142 96.0979 60.0485 97.314 59.4864 98.3001C57.6521 97.5643 55.8893 96.6855 54.2031 95.6585C54.2133 94.3657 54.2185 93.0679 54.2236 91.7701Z" fill="#00388C"/>
<path d="M139.28 37.9661C134.114 40.6282 128.958 43.3107 123.777 45.9422C108.167 53.8774 92.5423 61.787 76.9325 69.7222C76.4522 69.9675 75.8288 70.0645 75.65 70.7186C75.558 71.0047 75.3894 71.296 75.3894 71.5821C75.3996 82.0414 75.4252 92.4957 75.4456 102.955C75.3996 104.043 75.3485 105.132 75.3025 106.215C73.4631 105.489 71.7054 104.6 70.0243 103.558C70.0192 102.255 70.0141 100.947 70.0039 99.644C69.9937 90.6255 69.9732 81.6071 69.9937 72.5887C69.9988 71.4799 69.5696 70.3507 70.1061 69.2572C76.1814 66.5645 82.0216 63.3965 87.959 60.4227C97.0387 55.8803 106.072 51.251 115.127 46.6575C122.449 42.9428 129.771 39.2179 137.098 35.5084C137.767 35.1711 138.467 34.8952 139.147 34.5938C139.193 35.7179 139.234 36.842 139.28 37.9661Z" fill="#00388C"/>
<path d="M85.9343 83.5691C92.1527 80.4932 98.3966 77.453 104.595 74.3361C116.776 68.2046 128.942 62.0373 141.108 55.87C145.681 53.5503 150.244 51.2101 154.812 48.875C154.858 50.0042 154.909 51.1385 154.955 52.2678C154.49 52.9269 153.728 53.116 153.064 53.4481C133.116 63.5753 113.158 73.6923 93.2104 83.8195C92.5615 84.1516 91.7644 84.2896 91.3709 85.0203C90.9979 85.5925 91.1614 86.2312 91.1614 86.8393C91.1512 94.754 91.1563 102.664 91.1614 110.578C91.1461 111.754 91.1308 112.929 91.1154 114.099C89.1636 113.333 87.3088 112.367 85.5 111.314C85.5051 110.108 85.5102 108.903 85.5204 107.697C85.5255 100.635 85.5409 93.5686 85.5358 86.5072C85.5358 85.5159 85.5766 84.5246 85.9343 83.5691Z" fill="#00388C"/>
<path d="M306.163 147.144C304.088 146.966 302.872 148.315 301.973 149.817C300.307 152.596 298.82 155.488 297.303 158.36C292.53 167.368 287.784 176.392 283.006 185.4C281.366 188.491 279.67 191.557 278.029 194.648C277.641 195.379 277.38 195.793 276.553 195.037C275.684 194.24 274.611 193.662 274.023 192.574C280.972 179.452 287.932 166.331 294.865 153.204C295.351 152.285 296.138 151.462 296.015 150.292C296.991 149.873 297.017 148.785 297.579 148.074C300.593 144.303 302.009 143.992 306.163 147.144Z" fill="#6CA7FF"/>
<path d="M249.996 223.209C247.855 220.854 245.683 218.549 244.447 215.514C242.924 211.784 241.979 207.937 241.728 203.926C241.304 197.069 242.096 190.319 244.058 183.763C246.695 174.96 250.721 166.835 256.51 159.626C260.251 154.961 264.435 150.827 269.673 147.853C274.644 145.028 279.78 142.922 285.691 144.128C286.11 144.215 286.565 144.128 287.004 144.123C288.047 144.287 289.064 144.481 289.544 145.605C283.019 143.868 277.143 145.738 271.645 149.059C262.805 154.393 256.628 162.211 251.881 171.209C246.818 180.81 243.782 190.968 243.874 201.943C243.951 210.64 245.918 218.57 252.642 224.686C251.728 224.707 250.956 224.4 250.374 223.669C250.241 223.511 250.113 223.352 249.98 223.194L249.996 223.209Z" fill="#00388C"/>
<path d="M296.01 150.291C296.133 151.461 295.346 152.284 294.86 153.203C287.927 166.335 280.973 179.451 274.018 192.573C273.099 192.077 272.363 191.372 271.734 190.544C273.85 188.092 274.913 185.026 276.425 182.236C281.535 172.829 286.46 163.32 291.457 153.852C292.387 152.084 293.598 150.459 294.12 148.492C294.947 148.886 295.376 149.693 296.01 150.291Z" fill="#00388C"/>
<path d="M249.984 223.188C250.117 223.346 250.245 223.504 250.378 223.663C250.245 223.504 250.112 223.346 249.984 223.188Z" fill="#F5A5A3"/>
<path d="M197.308 150.375C196.639 147.56 198.371 145.966 201.125 144.601C219.836 135.353 238.486 125.977 257.152 116.642C259.395 115.523 260.003 115.906 260.049 118.45C260.064 119.268 260.044 120.08 260.054 120.898C260.079 123.049 259.185 124.475 257.167 125.481C238.246 134.878 219.366 144.351 200.476 153.804C197.707 155.188 197.313 154.933 197.308 151.77C197.308 151.453 197.308 151.142 197.308 150.375Z" fill="white"/>
<path d="M213.466 121.691C212.853 118.982 214.457 117.363 217.181 116.055C225.136 112.243 232.99 108.206 240.879 104.257C243.388 103.005 243.889 103.327 243.899 106.209C243.904 106.898 243.868 107.588 243.904 108.273C244.027 110.521 243.117 112.008 241.027 113.03C232.878 117.02 224.784 121.118 216.67 125.175C213.814 126.606 213.466 126.397 213.461 123.264C213.466 122.891 213.466 122.518 213.466 121.691Z" fill="white"/>
<path d="M26.7656 121.547C32.6417 124.183 38.3746 127.101 44.0412 130.167C44.036 139.947 44.0309 149.731 44.0207 159.511C44.0207 160.196 43.9339 160.865 44.7565 161.259C47.9091 162.776 51.0413 164.335 54.1786 165.878C55.9823 165.03 57.786 164.176 59.5896 163.328C59.5999 168.254 59.6101 173.179 59.6305 178.105C59.6356 178.841 59.513 179.612 60.4072 180.031C63.616 181.539 66.6153 183.465 69.9621 184.691C71.7505 183.848 73.5439 183 75.3323 182.157C75.3834 185.284 75.4294 188.406 75.4805 191.533C75.4396 192.647 75.3936 193.761 75.3527 194.875C74.6732 194.563 73.9834 194.267 73.314 193.929C57.8166 186.183 42.3192 178.437 26.8218 170.691C26.8014 154.304 26.781 137.928 26.7656 121.547Z" fill="#2469D0"/>
<path d="M26.8169 170.688C42.3143 178.434 57.8117 186.185 73.3091 193.926C73.9785 194.258 74.6683 194.554 75.3479 194.871C78.664 196.665 82.0056 198.402 85.4699 199.899C85.9911 200.17 86.5072 200.441 87.0284 200.717C88.0196 201.212 89.0058 201.713 89.9971 202.209C90.0073 204.84 90.0328 207.471 90.0277 210.103C90.0226 212.121 89.8949 212.198 88.0452 211.273C70.0543 202.285 52.0685 193.297 34.0828 184.305C29.0396 181.786 23.9913 179.272 18.9635 176.727C18.3401 176.41 17.4357 176.344 17.3438 175.363C20.4964 173.804 23.6592 172.246 26.8169 170.688Z" fill="#94BFFF"/>
<g filter="url(#filter0_f_1039_17519)">
<path d="M181.5 101.968C181.54 102.791 181.116 103.481 180.856 104.217C180.585 103.563 180.171 103.874 179.798 104.068C173.948 107.109 168.102 110.159 162.257 113.204C156.457 116.163 150.658 119.111 144.864 122.08C133.383 127.971 121.922 133.893 110.415 139.738C109.01 140.454 108.458 141.261 108.443 142.881C108.34 156.227 108.151 169.573 107.952 182.914C107.722 198.637 107.456 214.359 107.201 230.081C107.196 230.515 107.129 230.955 107.094 231.389C106.93 231.405 106.767 231.425 106.603 231.44C106.455 223.418 106.394 215.396 106.138 207.379C105.806 196.797 105.617 186.21 105.367 175.628C105.116 165.108 104.692 154.587 104.682 144.061C104.682 142.028 104.038 140.765 102.122 139.79C92.1788 134.731 82.3071 129.535 72.4149 124.374C55.5277 115.56 38.6303 106.761 21.7839 97.8704C19.2496 96.5317 16.5313 95.4893 14.2422 93.6959C16.1685 93.6652 17.6452 94.8915 19.2496 95.6477C30.0615 100.757 40.8019 106.005 51.5831 111.176C65.9206 118.048 80.2632 124.9 94.6161 131.747C98.2848 133.495 101.984 135.17 105.643 136.938C106.588 137.393 107.37 137.347 108.3 136.897C117.998 132.207 127.706 127.547 137.419 122.892C148.824 117.425 160.233 111.963 171.653 106.521C174.929 104.968 178.219 103.486 181.5 101.968Z" fill="#FDFDFD"/>
</g>
<path d="M26.8218 170.686C23.659 172.244 20.5013 173.803 17.3384 175.361C16.71 174.891 16.9654 174.212 16.9654 173.619C16.9552 155.214 16.9654 136.809 16.9348 118.405C16.9297 116.902 17.1698 116.443 18.6567 117.286C21.3086 118.798 24.2057 119.866 26.7759 121.547C26.7861 137.928 26.8065 154.305 26.8218 170.686Z" fill="#4E88DE"/>
<path d="M75.4763 191.525C75.4252 188.398 75.3792 185.276 75.3281 182.149C75.3435 176.64 75.3537 171.132 75.3741 165.619C75.3997 159.048 75.4405 152.477 75.4763 145.906C78.9662 147.347 82.318 149.079 85.5933 150.955C85.6086 151.195 85.624 151.43 85.6444 151.67C85.578 151.787 85.5831 151.9 85.6495 152.012C85.6188 152.697 85.5575 153.382 85.5575 154.066C85.5371 168.194 85.5218 182.327 85.5064 196.455C82.1597 194.82 78.818 193.17 75.4763 191.525Z" fill="#F27A73"/>
<path d="M69.9584 184.693C66.6116 183.466 63.6123 181.54 60.4035 180.033C59.5144 179.614 59.6319 178.842 59.6268 178.106C59.6064 173.181 59.5962 168.255 59.5859 163.329C59.9743 162.691 59.8005 161.986 59.8005 161.311C59.8159 153.56 59.8159 145.814 59.821 138.062C63.3364 139.514 66.6525 141.358 70.0351 143.08C70.0146 143.765 69.9789 144.455 69.9789 145.139C69.9737 158.322 69.9686 171.505 69.9584 184.693Z" fill="#F27A73"/>
<path d="M54.1836 165.875C51.0463 164.332 47.9141 162.773 44.7615 161.256C43.944 160.862 44.0257 160.193 44.0257 159.508C44.0308 149.729 44.041 139.944 44.0461 130.164C47.5462 131.636 50.8879 133.429 54.2449 135.197C54.2245 145.421 54.204 155.646 54.1836 165.875Z" fill="#F27A73"/>
<path d="M85.5096 196.467C85.525 182.339 85.5403 168.206 85.5607 154.078C85.5607 153.393 85.622 152.708 85.6527 152.024C85.6782 151.988 85.7344 151.947 85.7293 151.916C85.714 151.835 85.6782 151.758 85.6476 151.676C85.6323 151.436 85.6118 151.201 85.5965 150.961C85.6578 150.966 85.7293 150.961 85.7804 150.986C90.1236 152.744 90.1185 152.744 90.1236 157.368C90.1338 171.185 90.144 184.996 90.1542 198.807C89.3929 199.906 88.1002 200.131 87.0272 200.713C86.506 200.442 85.9899 200.171 85.4688 199.896C85.668 198.756 86.2761 197.617 85.5096 196.467Z" fill="#8F3135"/>
<path d="M69.9609 184.693C69.966 171.511 69.9712 158.328 69.9814 145.145C69.9814 144.46 70.0171 143.771 70.0376 143.086C71.8821 143.975 73.788 144.747 75.4793 145.922C75.4435 152.493 75.4027 159.064 75.3771 165.635C75.3516 171.143 75.3465 176.651 75.3311 182.164C73.5428 183.002 71.7544 183.845 69.9609 184.693Z" fill="#8F3135"/>
<path d="M54.1797 165.873C54.2001 155.649 54.2206 145.42 54.241 135.195C56.1469 136.069 58.0681 136.902 59.8258 138.062C59.8207 145.813 59.8207 153.559 59.8053 161.31C59.8053 161.985 59.9791 162.69 59.5907 163.329C57.7871 164.172 55.9834 165.02 54.1797 165.873Z" fill="#8F3135"/>
<path d="M87.0234 200.711C88.0965 200.128 89.3892 199.898 90.1505 198.805C90.3089 199.949 90.4826 201.094 89.987 202.208C89.0009 201.707 88.0147 201.206 87.0234 200.711Z" fill="#4A7191"/>
<path d="M106.61 231.442C106.774 231.426 106.937 231.406 107.101 231.391C107.05 233.92 106.993 236.449 106.942 238.978C106.206 236.495 106.702 233.956 106.61 231.442Z" fill="#CDE1F4"/>
<path d="M13.2344 92.9375C13.684 92.9733 13.9497 93.193 13.9548 93.6682C13.592 93.5455 13.3468 93.3054 13.2344 92.9375Z" fill="#FDFDFD"/>
<path d="M162.259 113.203C168.105 110.158 173.95 107.112 179.8 104.067C180.173 103.873 180.592 103.561 180.858 104.215C178.084 109.882 174.589 115.226 173.061 121.445C172.473 123.841 172.795 126.319 172.795 128.757C172.775 154.908 172.775 181.064 172.826 207.214C172.831 208.722 172.448 209.58 171.007 210.229C167.808 211.66 164.697 213.3 161.554 214.853C161.549 182.315 161.549 149.778 161.523 117.24C161.518 115.829 162.096 114.562 162.259 113.203Z" fill="#00388C"/>
<path d="M91.1172 114.113C91.1325 112.937 91.1478 111.762 91.1632 110.592C94.5304 112.278 97.7903 114.184 101.316 115.548C105.158 114.021 108.756 111.977 112.445 110.127C123.732 104.45 134.983 98.7021 146.245 92.9742C154.047 89.0041 161.844 85.0135 169.652 81.0484C169.917 80.9105 170.255 80.9156 170.561 80.8594C170.597 83.9762 170.633 87.088 170.663 90.2048C157.404 96.8575 144.145 103.51 130.88 110.163C123.394 113.913 115.899 117.633 108.434 121.43C107.376 121.966 106.543 122.022 105.475 121.465C100.718 118.962 95.91 116.55 91.1172 114.113Z" fill="#00388C"/>
<path d="M170.673 90.1965C170.637 87.0796 170.601 83.9679 170.57 80.851C170.621 79.7167 170.673 78.5875 170.724 77.4531C174.873 79.497 179.016 81.5357 183.605 83.7941C179.078 86.0372 174.873 88.1168 170.673 90.1965Z" fill="#2469D0"/>
<path d="M43.9407 80.375C43.9867 82.659 44.0327 84.9481 44.0736 87.2321C44.0225 88.3204 43.9765 89.4036 43.9254 90.492C40.5888 88.8825 37.2574 87.2678 33.4609 85.4335C37.2625 83.5992 40.6042 81.9896 43.9407 80.375Z" fill="#2469D0"/>
<path d="M70.0077 99.6431C70.0128 100.946 70.0179 102.254 70.0282 103.557C66.4412 101.958 62.9258 100.21 59.4922 98.3095C60.0542 97.3284 58.925 96.1072 59.9265 95.1875C62.7777 96.2503 65.3631 97.8598 68.1172 99.127C68.715 99.4029 69.2464 99.965 70.0077 99.6431Z" fill="#00388C"/>
<path d="M43.9297 90.4943C43.9808 89.4059 44.0268 88.3227 44.0779 87.2344C46.8217 88.568 49.5605 89.9016 52.3043 91.225C52.9072 91.5162 53.4693 91.9914 54.2255 91.7666C54.2204 93.0644 54.2153 94.3623 54.2051 95.6652C50.7152 94.0761 47.2611 92.4104 43.9297 90.4943Z" fill="#00388C"/>
<path d="M85.5239 107.718C85.5188 108.924 85.5137 110.13 85.5034 111.336C82.1056 109.629 78.7026 107.927 75.3047 106.221C75.3507 105.133 75.4018 104.049 75.4478 102.961C76.0762 103.222 76.7149 103.451 77.3281 103.748C80.0668 105.061 82.7902 106.389 85.5239 107.718Z" fill="#00388C"/>
<path d="M265.571 185.864C261.698 187.423 259.828 190.294 259.746 194.336C259.705 196.406 260.962 197.479 262.286 198.659C265.689 201.689 269.061 204.749 272.433 207.81C272.653 208.009 272.76 208.321 272.924 208.582C271.406 208.454 270.349 207.452 269.194 206.635C268.535 205.991 268.09 205.041 266.956 205.082L266.992 205.087C266.281 203.59 265.239 202.471 263.568 202.062L263.609 202.072C263.747 201.403 263.44 201.203 262.827 201.316L262.848 201.326C262.321 199.829 261.034 199.108 259.807 198.322L259.813 198.327C259.22 197.264 258.203 196.615 257.34 195.823C256.43 194.985 255.776 194.076 255.653 192.803C255.301 189.14 257.559 185.374 260.988 183.969C262.766 183.989 264.166 184.929 265.571 185.864Z" fill="#6CA7FF"/>
<path d="M260.986 183.965C257.558 185.37 255.299 189.136 255.652 192.799C255.775 194.071 256.429 194.981 257.338 195.819C258.196 196.611 259.218 197.26 259.811 198.323C259.096 198.501 258.641 198.072 258.171 197.638C256.934 196.493 255.81 195.241 254.446 194.22C253.036 193.162 253.261 191.511 253.404 190.05C253.695 187.041 254.891 184.476 257.823 183.183C258.927 182.697 260.281 182.314 260.986 183.965Z" fill="#00388C"/>
<path d="M263.57 202.062C265.241 202.471 266.283 203.59 266.994 205.087C265.4 204.587 264.516 203.289 263.57 202.062Z" fill="#00388C"/>
<path d="M259.805 198.32C261.031 199.107 262.319 199.833 262.845 201.325C261.384 200.773 260.311 199.833 259.805 198.32Z" fill="#00388C"/>
<path d="M266.953 205.079C268.087 205.039 268.532 205.989 269.191 206.633C268.052 206.679 267.413 206.004 266.953 205.079Z" fill="#00388C"/>
<path d="M262.829 201.311C263.442 201.198 263.754 201.398 263.611 202.067C263.074 202.103 262.809 201.852 262.829 201.311Z" fill="#00388C"/>
<path d="M272.914 208.539C273.057 208.672 273.2 208.81 273.348 208.943C273.124 208.897 272.914 208.83 272.914 208.539Z" fill="#97C2E8"/>
<path d="M101.321 115.546C97.7956 114.181 94.5357 112.281 91.1685 110.589C91.1685 102.675 91.1583 94.765 91.1685 86.8503C91.1685 86.2422 91.005 85.5984 91.378 85.0312C94.689 86.6765 98 88.3218 101.316 89.962C101.316 98.495 101.316 107.023 101.321 115.546Z" fill="#6CA7FF"/>
<path d="M234.922 172.719C234.988 172.673 235.055 172.627 235.121 172.586C235.075 172.652 235.029 172.719 234.983 172.78C234.988 172.78 234.922 172.719 234.922 172.719Z" fill="#D4D7DC"/>
<path d="M253.28 146.212C253.249 146.237 253.208 146.294 253.167 146.294C253.126 146.294 253.09 146.227 253.055 146.197C253.096 146.166 253.136 146.105 253.177 146.11C253.218 146.105 253.249 146.171 253.28 146.212Z" fill="#D4D7DC"/>
<path d="M70.0039 99.6413C69.2426 99.9581 68.7112 99.4011 68.1134 99.1252C65.3593 97.858 62.7738 96.2485 59.9227 95.1857C59.3657 89.0082 59.6008 82.8103 59.6212 76.6276C59.6468 69.1268 59.3249 61.6157 59.9074 54.125C63.2797 55.5352 66.5243 57.1959 69.682 59.0302C69.682 61.8047 69.6718 64.5843 69.6973 67.3588C69.7024 68.0078 69.4623 68.7384 70.1112 69.2596C69.5747 70.3531 69.9988 71.4823 69.9988 72.5911C69.9732 81.6095 69.9988 90.6228 70.0039 99.6413Z" fill="#6CA7FF"/>
<path d="M85.5229 107.712C82.7944 106.389 80.0659 105.055 77.3272 103.742C76.714 103.451 76.0753 103.216 75.4468 102.955C75.4264 92.4958 75.4008 82.0416 75.3906 71.5823C75.3906 71.2961 75.5592 71.0049 75.6512 70.7188C79.0798 72.0626 82.1915 74.0349 85.4974 75.6291C85.4974 77.6985 85.4872 79.7678 85.5076 81.8372C85.5127 82.4402 85.3135 83.1146 85.9419 83.5694C85.5843 84.5249 85.5383 85.5161 85.5434 86.5227C85.5434 93.5842 85.5281 100.646 85.5229 107.712Z" fill="#6CA7FF"/>
<path d="M85.5067 196.464C86.2732 197.614 85.6651 198.754 85.4659 199.893C82.0067 198.396 78.6599 196.659 75.3438 194.865C75.3846 193.751 75.4306 192.637 75.4715 191.523C78.8183 193.169 82.1599 194.819 85.5067 196.464Z" fill="#A83C41"/>
<path d="M85.6489 151.68C85.6796 151.761 85.7153 151.838 85.7306 151.92C85.7358 151.95 85.6796 151.991 85.654 152.027C85.5876 151.91 85.5825 151.797 85.6489 151.68Z" fill="#A83C41"/>
<defs>
<filter id="filter0_f_1039_17519" x="3.24219" y="82.6953" width="189.258" height="159.742" filterUnits="userSpaceOnUse" color-interpolation-filters="sRGB">
<feFlood flood-opacity="0" result="BackgroundImageFix"/>
<feBlend mode="normal" in="SourceGraphic" in2="BackgroundImageFix" result="shape"/>
<feGaussianBlur stdDeviation="5.5" result="effect1_foregroundBlur_1039_17519"/>
</filter>
</defs>
</svg>
