<svg width="59" height="114" viewBox="0 0 59 114" fill="none" xmlns="http://www.w3.org/2000/svg">
<path d="M35.209 0.921875C36.2447 1.5675 36.5697 2.50283 36.5477 3.70579C36.4898 6.74905 36.5284 9.79507 36.5284 12.8383C36.5284 13.197 36.5284 13.5557 36.5284 13.9475C38.0819 14.2427 39.5583 14.469 41.0072 14.8111C46.092 16.0113 50.7884 18.0502 54.8732 21.3749C55.2148 21.6508 55.5619 21.9212 55.8814 22.222C57.0934 23.3615 57.1953 23.9602 56.402 25.4004C54.865 28.1926 53.3225 30.9793 51.7662 33.7604C50.8131 35.4655 49.637 35.7001 48.0862 34.5026C45.4942 32.5023 42.7398 30.7751 39.6548 29.6439C34.5204 27.7622 29.3502 27.2628 24.114 29.299C19.9162 30.9324 17.6079 34.2433 17.8613 38.3764C17.9908 40.4678 18.9438 42.1315 20.4726 43.5248C22.3594 45.2465 24.4721 46.6012 26.8216 47.5889C32.416 49.9397 38.0324 52.238 43.6047 54.6412C47.1938 56.189 50.3834 58.3769 53.2288 61.0836C56.8234 64.5021 58.5036 68.7952 58.8783 73.6071C59.8038 85.5456 52.4135 96.1625 40.9273 99.5479C39.495 99.9701 38.0379 100.301 36.5284 100.69C36.5284 104.07 36.5312 107.442 36.5284 110.813C36.5284 113.043 35.95 113.625 33.7409 113.628C31.4326 113.63 29.1271 113.63 26.8189 113.628C24.6842 113.625 24.0258 112.952 24.0231 110.772C24.0203 107.436 24.0231 104.1 24.0231 100.66C23.4391 100.527 22.8855 100.381 22.3263 100.279C14.8066 98.9189 8.15728 95.7376 2.38665 90.7216C2.00102 90.385 1.63192 90.0236 1.28211 89.6511C0.229894 88.5254 0.180314 87.7004 1.12785 86.4423C3.0918 83.8377 5.06676 81.2442 7.05549 78.6562C8.11597 77.2766 9.17369 77.1497 10.4903 78.2865C14.8314 82.0333 19.6765 84.7896 25.3287 85.9953C30.0692 87.0079 34.5975 86.7486 38.8752 84.1302C43.1061 81.5422 45.5686 74.432 39.6134 69.9789C37.2143 68.1855 34.3854 66.908 31.6365 65.6499C26.5847 63.3378 21.3843 61.3485 16.3656 58.9701C12.2973 57.0443 8.74674 54.3128 5.984 50.6764C2.35635 45.9032 1.29312 40.4457 2.14426 34.6599C3.35898 26.4047 8.35836 20.8342 15.5448 17.1535C18.1533 15.8181 21.0455 15.0428 24.0148 13.9337C24.0148 12.59 24.0148 10.9484 24.0148 9.30396C24.0148 7.4333 24.0506 5.56265 24.0038 3.69199C23.9735 2.43385 24.3564 1.47093 25.5408 0.921875C28.7635 0.921875 31.9863 0.921875 35.209 0.921875Z" fill="#0052CC"/>
</svg>
