<svg width="54" height="46" viewBox="0 0 54 46" fill="none" xmlns="http://www.w3.org/2000/svg">
<path d="M22.1091 25.8611V45.2461H0.414062V29.939C0.414062 21.6627 1.61935 15.6564 4.00982 11.9401C7.16364 6.99849 12.1455 3.26212 18.9553 0.710938L23.897 7.19937C19.7789 8.62562 16.7456 10.7349 14.7971 13.5472C12.8485 16.3595 11.7638 20.4575 11.5428 25.8411H22.1091V25.8611Z" fill="#0052CC"/>
<path d="M51.7966 25.8611V45.2461H30.1016V29.939C30.1016 21.6627 31.3068 15.6564 33.6973 11.9401C36.8511 6.99849 41.833 3.26212 48.6428 0.710938L53.5845 7.19937C49.4664 8.62562 46.4331 10.7349 44.4846 13.5472C42.536 16.3595 41.4513 20.4575 41.2303 25.8411H51.7966V25.8611Z" fill="#0052CC"/>
</svg>
