<svg width="226" height="259" viewBox="0 0 226 259" fill="none" xmlns="http://www.w3.org/2000/svg">
<mask id="path-1-inside-1_1039_17505" fill="white">
<path fill-rule="evenodd" clip-rule="evenodd" d="M133.034 223.689C126.456 224.884 119.678 225.508 112.754 225.508C50.4817 225.508 0 175.026 0 112.754C0 50.4817 50.4817 0 112.754 0C175.026 0 225.508 50.4817 225.508 112.754C225.508 135.5 218.773 156.672 207.188 174.387L158.033 258.794L133.034 223.689Z"/>
</mask>
<path fill-rule="evenodd" clip-rule="evenodd" d="M133.034 223.689C126.456 224.884 119.678 225.508 112.754 225.508C50.4817 225.508 0 175.026 0 112.754C0 50.4817 50.4817 0 112.754 0C175.026 0 225.508 50.4817 225.508 112.754C225.508 135.5 218.773 156.672 207.188 174.387L158.033 258.794L133.034 223.689Z" fill="#0052CC" fill-opacity="0.1"/>
<path d="M133.034 223.689L136.293 221.369L134.819 219.3L132.32 219.754L133.034 223.689ZM207.188 174.387L203.841 172.197L203.784 172.284L203.732 172.374L207.188 174.387ZM158.033 258.794L154.775 261.114L158.371 266.163L161.49 260.807L158.033 258.794ZM112.754 229.508C119.918 229.508 126.936 228.862 133.749 227.625L132.32 219.754C125.975 220.906 119.437 221.508 112.754 221.508V229.508ZM-4 112.754C-4 177.236 48.2726 229.508 112.754 229.508V221.508C52.6909 221.508 4 172.817 4 112.754H-4ZM112.754 -4C48.2726 -4 -4 48.2726 -4 112.754H4C4 52.6909 52.6909 4 112.754 4V-4ZM229.508 112.754C229.508 48.2726 177.236 -4 112.754 -4V4C172.817 4 221.508 52.6909 221.508 112.754H229.508ZM210.536 176.576C222.533 158.231 229.508 136.301 229.508 112.754H221.508C221.508 134.699 215.013 155.114 203.841 172.197L210.536 176.576ZM203.732 172.374L154.577 256.781L161.49 260.807L210.645 176.399L203.732 172.374ZM161.292 256.474L136.293 221.369L129.776 226.009L154.775 261.114L161.292 256.474Z" fill="#0052CC" fill-opacity="0.2" mask="url(#path-1-inside-1_1039_17505)"/>
</svg>
