<svg width="13" height="13" viewBox="0 0 13 13" fill="none" xmlns="http://www.w3.org/2000/svg">
<path d="M9.70302 0C10.4937 0.0148747 11.1757 0.287041 11.7214 0.876803C11.8883 1.05731 12.06 1.23299 12.2285 1.41189C13.2351 2.48086 13.2215 4.18059 12.1843 5.22102C9.9604 7.45222 7.72926 9.67579 5.50255 11.9038C5.19893 12.2077 4.82372 12.3516 4.41191 12.4316C3.56136 12.5969 2.71081 12.7645 1.86227 12.9406C1.05113 13.109 0.24683 12.6045 0.0441456 11.7964C-0.0407084 11.4583 0.010767 11.1311 0.0811435 10.8006C0.251656 10.0022 0.417342 9.20302 0.585844 8.40461C0.662253 8.04239 0.827939 7.72922 1.09095 7.46589C3.30318 5.25117 5.51502 3.03685 7.72484 0.820119C8.27096 0.272569 8.9313 0.0124626 9.70302 0Z" fill="#0052CC"/>
</svg>
