<svg width="15" height="15" viewBox="0 0 15 15" fill="none" xmlns="http://www.w3.org/2000/svg">
<path d="M10.6279 11.8561C7.55258 14.2141 3.31867 13.3304 1.26494 10.5098C-0.676281 7.84337 -0.35488 4.09449 2.03418 1.8338C4.48173 -0.481982 8.20652 -0.620561 10.8028 1.50989C13.4548 3.68598 14.0697 7.6586 11.8673 10.6011C11.9146 10.6523 11.9636 10.7079 12.0154 10.7597C12.9044 11.6485 13.7929 12.5373 14.683 13.4244C14.9437 13.6838 15.0657 13.9821 14.9643 14.3483C14.7966 14.9532 14.0781 15.1976 13.5768 14.8191C13.5049 14.7651 13.4414 14.6995 13.3779 14.636C12.5078 13.7678 11.6383 12.899 10.7699 12.0291C10.7165 11.9757 10.673 11.9117 10.6279 11.8561ZM6.60732 11.4275C9.27935 11.4231 11.4239 9.2787 11.4255 6.60951C11.4272 3.93198 9.27266 1.78037 6.59339 1.78427C3.92192 1.78761 1.77795 3.93253 1.77572 6.60228C1.77405 9.28093 3.92861 11.432 6.60732 11.4275Z" fill="#0052CC"/>
</svg>
