<svg width="19" height="19" viewBox="0 0 19 19" fill="none" xmlns="http://www.w3.org/2000/svg">
<path d="M3.72653 18.6641C3.94442 17.9639 4.1481 17.3087 4.35226 16.6544C4.84204 15.0849 5.3304 13.5154 5.82539 11.9479C5.8666 11.8173 5.83913 11.756 5.73634 11.6789C3.98184 10.3556 2.23018 9.0279 0.477573 7.70068C0.422153 7.65865 0.368154 7.61415 0.320312 7.53058C0.387575 7.53058 0.454363 7.53058 0.521626 7.53058C2.67733 7.53058 4.83257 7.52811 6.98827 7.53552C7.15738 7.53602 7.21801 7.47866 7.26727 7.31893C7.93089 5.17383 8.60209 3.03169 9.2714 0.888562C9.2894 0.830706 9.30882 0.773345 9.34482 0.664062C9.37987 0.764939 9.40119 0.823289 9.41966 0.882133C10.0928 3.03663 10.7673 5.19114 11.4347 7.34762C11.4792 7.49102 11.537 7.53503 11.6805 7.53453C13.8419 7.52959 16.0033 7.53107 18.1652 7.53107C18.2339 7.53107 18.303 7.53107 18.3717 7.53107C18.3764 7.54492 18.3816 7.55926 18.3864 7.5731C16.5371 8.97301 14.6879 10.3729 12.8216 11.7857C13.5307 14.0598 14.2403 16.3355 14.9626 18.6512C14.8845 18.5983 14.8333 18.5671 14.7855 18.531C13.0229 17.1979 11.2599 15.8652 9.50066 14.5276C9.38698 14.4411 9.31687 14.4322 9.19751 14.5232C7.43874 15.8618 5.67571 17.1939 3.91316 18.5276C3.86626 18.5632 3.81795 18.5973 3.72653 18.6641Z" fill="#0052CC"/>
</svg>
