<svg width="19" height="12" viewBox="0 0 19 12" fill="none" xmlns="http://www.w3.org/2000/svg">
<path d="M18.5801 5.8374C18.4673 6.23464 18.1671 6.50473 17.9099 6.79872C16.9897 7.8504 15.9714 8.79691 14.8122 9.5828C13.6601 10.3639 12.4268 10.961 11.0443 11.2143C9.81101 11.4404 8.60493 11.331 7.42036 10.9356C5.77688 10.3868 4.36572 9.4499 3.1104 8.28111C2.44976 7.66588 1.84983 6.9842 1.23938 6.31686C0.875116 5.91866 0.886589 5.43346 1.22552 5.02282C2.25186 3.77946 3.3977 2.66277 4.73429 1.75355C5.88492 0.970526 7.11872 0.373461 8.50024 0.11819C9.73309 -0.109832 10.9401 -0.00227434 12.1247 0.392104C13.7629 0.937063 15.1717 1.86827 16.4237 3.03229C17.0934 3.65469 17.6971 4.34784 18.3181 5.02139C18.4367 5.14998 18.494 5.33498 18.5796 5.49369C18.5801 5.60794 18.5801 5.72267 18.5801 5.8374ZM9.78281 9.76493C12.0516 9.75776 13.8786 7.92784 13.8767 5.66435C13.8748 3.39894 12.0468 1.56998 9.77994 1.56616C7.51215 1.56233 5.66454 3.41328 5.67745 5.67534C5.69083 7.94744 7.52266 9.7721 9.78281 9.76493Z" fill="#0052CC"/>
<path d="M9.78346 2.83599C11.3528 2.84507 12.6139 4.11377 12.6043 5.67408C12.5953 7.24346 11.3266 8.50452 9.76625 8.49496C8.19686 8.48588 6.93581 7.21717 6.94537 5.65687C6.95493 4.08748 8.22363 2.8269 9.78346 2.83599ZM8.90722 5.45657C8.95885 5.11525 9.13524 4.89058 9.48899 4.83082C9.51671 4.82604 9.5583 4.78206 9.55878 4.75577C9.56404 4.47182 9.56213 4.18739 9.56213 3.90439C8.70692 3.89101 7.95354 4.64391 7.99848 5.45657C8.29773 5.45657 8.59841 5.45657 8.90722 5.45657Z" fill="#0052CC"/>
</svg>
