<svg width="22" height="28" viewBox="0 0 22 28" fill="none" xmlns="http://www.w3.org/2000/svg">
<path d="M19.2928 28.0003C13.7671 28.0003 8.24126 28.0003 2.71471 28.0003C2.69062 27.9872 2.66803 27.9645 2.64317 27.9616C1.31557 27.8016 -0.00450666 26.6139 1.15654e-05 24.8345C0.0195906 17.6176 0.00754195 10.3999 0.00829498 3.18294C0.00829498 1.27863 1.32988 0.00105511 3.29907 0.000324649C6.48442 -0.000405811 9.66977 0.000324649 12.8551 0.000324649C12.9643 0.000324649 13.0735 0.000324649 13.203 0.000324649C13.203 0.131807 13.203 0.23042 13.203 0.329032C13.203 2.26986 13.2023 4.2107 13.203 6.15226C13.2038 7.39916 14.0321 8.20266 15.3183 8.20339C17.4321 8.20412 19.5466 8.20339 21.6604 8.20339C21.7688 8.20339 21.8773 8.20339 21.9993 8.20339C21.9993 8.35095 21.9993 8.45978 21.9993 8.56862C21.9993 13.7994 21.9993 19.0303 21.9993 24.2611C21.9993 24.5438 22.0038 24.8265 21.9947 25.1084C21.9526 26.3802 21.0324 27.5277 19.777 27.8769C19.6159 27.9207 19.454 27.9594 19.2928 28.0003ZM10.8633 10.9382C8.79775 10.9382 6.73142 10.936 4.66583 10.9397C4.19895 10.9404 3.84126 11.2472 3.7908 11.6687C3.74186 12.0763 4.02726 12.4642 4.45574 12.5562C4.57321 12.581 4.69822 12.5774 4.81945 12.5774C8.08689 12.5781 11.3551 12.5781 14.6225 12.5781C15.4109 12.5781 16.2001 12.5788 16.9886 12.5781C17.3741 12.5781 17.661 12.4138 17.8139 12.0697C18.0609 11.5138 17.6362 10.9397 16.9757 10.939C14.9388 10.936 12.9011 10.9382 10.8633 10.9382ZM10.8347 16.9536C10.9944 16.9536 11.154 16.9536 11.3137 16.9536C13.1917 16.9536 15.0698 16.9521 16.9479 16.955C17.3432 16.9558 17.646 16.8097 17.8094 16.4569C18.0699 15.8959 17.6377 15.3144 16.9607 15.3144C13.7211 15.3122 10.4815 15.3137 7.24198 15.3137C6.38728 15.3137 5.53333 15.3137 4.67864 15.3137C4.30513 15.3137 4.02425 15.47 3.86536 15.798C3.59577 16.3561 4.02199 16.9514 4.6937 16.9528C6.74121 16.9558 8.78797 16.9536 10.8347 16.9536ZM6.69 21.3283C7.34816 21.3283 8.00556 21.3312 8.66371 21.3276C9.18858 21.3246 9.57037 20.985 9.58016 20.5204C9.58995 20.05 9.19687 19.6899 8.6607 19.6891C7.34514 19.6862 6.02959 19.687 4.71403 19.6891C4.16883 19.6899 3.78629 20.0325 3.78704 20.5095C3.78779 20.9872 4.16958 21.3261 4.71704 21.3283C5.37444 21.3305 6.0326 21.3283 6.69 21.3283Z" fill="#0052CC"/>
</svg>
