<svg width="16" height="16" viewBox="0 0 16 16" fill="none" xmlns="http://www.w3.org/2000/svg">
<path d="M13.965 16C9.98711 16 6.0092 16 2.03086 16C2.00195 15.9904 1.97387 15.9761 1.94411 15.9711C1.14786 15.8357 0.566597 15.406 0.222113 14.6783C0.117343 14.4566 0.072501 14.2063 0 13.9695C0.000419081 9.46 0.000419081 4.95091 0.000419081 0.441818C0.133687 0.106476 0.385135 -0.000833487 0.737582 4.8672e-06C4.45399 0.00713088 8.17082 0.00461582 11.8872 0.00461582C12.3524 0.00461582 12.5649 0.215881 12.5649 0.67991C12.5653 1.72115 12.5649 2.76196 12.5649 3.8032C12.5649 3.8644 12.5649 3.92518 12.5649 4.00315C12.637 4.00315 12.6927 4.00315 12.7484 4.00315C13.6021 4.00315 14.4558 4.00315 15.3094 4.00315C15.7817 4.00315 15.9955 4.21651 15.9955 4.6885C15.9955 6.86445 15.9955 9.03998 15.9955 11.2159C15.9955 12.0434 16.0076 12.8713 15.9921 13.6987C15.9741 14.6737 15.5135 15.3821 14.6318 15.7988C14.4243 15.8973 14.1884 15.9346 13.965 16ZM12.5653 5.15672C12.5653 5.23721 12.5653 5.30385 12.5653 5.3705C12.5653 8.07671 12.5649 10.7825 12.5661 13.4887C12.5661 13.6182 12.5737 13.7486 12.5875 13.8777C12.6567 14.5216 13.3393 14.9885 13.9688 14.8246C14.5379 14.6767 14.851 14.247 14.8514 13.6069C14.8522 10.8487 14.8518 8.09096 14.8514 5.33278C14.8514 5.27703 14.8468 5.22128 14.8438 5.15714C14.0857 5.15672 13.3385 5.15672 12.5653 5.15672ZM6.2992 8.0021C5.45056 8.0021 4.60192 8.0021 3.75329 8.0021C3.45113 8.0021 3.14897 7.99539 2.84765 8.00461C2.45665 8.01677 2.19934 8.38187 2.31458 8.74656C2.3984 9.01106 2.61548 9.14561 2.96625 9.14561C5.179 9.14603 7.39174 9.14603 9.60407 9.1452C9.67154 9.1452 9.73943 9.141 9.80607 9.13094C10.0743 9.08986 10.2729 8.86183 10.2796 8.59146C10.288 8.24564 10.0349 8.00294 9.65687 8.00252C8.53793 8.00126 7.41856 8.0021 6.2992 8.0021ZM6.2816 13.7163C6.91148 13.7163 7.54136 13.7163 8.17165 13.7163C8.67665 13.7163 9.18164 13.7201 9.68663 13.7146C10.0462 13.7109 10.2947 13.4518 10.2796 13.111C10.265 12.7832 10.0085 12.5699 9.62251 12.5695C7.39929 12.5686 5.17606 12.569 2.95326 12.5699C2.88076 12.5699 2.807 12.5753 2.73618 12.59C2.416 12.6566 2.22322 12.9752 2.30872 13.29C2.38247 13.5612 2.60165 13.7155 2.92351 13.7155C4.04287 13.7172 5.16223 13.7163 6.2816 13.7163ZM6.29543 10.2858C5.18654 10.2858 4.07765 10.2849 2.96877 10.287C2.87615 10.287 2.77976 10.2929 2.69134 10.3172C2.45539 10.3818 2.28944 10.6073 2.28567 10.8517C2.28189 11.0868 2.43737 11.3199 2.66284 11.3911C2.76006 11.4217 2.86735 11.4314 2.97002 11.4314C5.17732 11.4335 7.38504 11.4335 9.59234 11.4322C9.6749 11.4322 9.75955 11.4272 9.84043 11.4104C10.0936 11.3576 10.275 11.1321 10.28 10.8739C10.2868 10.5297 10.032 10.2875 9.65352 10.287C8.53416 10.2845 7.41479 10.2858 6.29543 10.2858ZM6.29543 5.71884C5.6601 5.71884 5.0252 5.71884 4.38987 5.71884C3.87985 5.71884 3.36941 5.71423 2.85939 5.72094C2.4533 5.72639 2.18802 6.107 2.32045 6.48007C2.40971 6.73199 2.618 6.85816 2.95452 6.85816C5.17229 6.85858 7.39049 6.85858 9.60826 6.85816C9.66526 6.85816 9.72309 6.85649 9.77967 6.8502C10.0609 6.82002 10.2746 6.5857 10.2805 6.30317C10.2872 5.96448 10.0361 5.72052 9.66945 5.71968C8.54463 5.71758 7.42024 5.71884 6.29543 5.71884ZM6.27447 4.00315C6.30591 4.00315 6.33692 4.00315 6.36835 4.00315C6.9098 4.00315 7.45125 4.0065 7.99271 4.00105C8.28941 3.99812 8.52368 3.7923 8.55972 3.51942C8.59702 3.23815 8.44238 2.97449 8.1792 2.89568C8.08155 2.86634 7.97385 2.86089 7.87075 2.86047C6.81383 2.85795 5.75691 2.85879 4.69999 2.85963C4.62749 2.85963 4.55415 2.86382 4.48207 2.87305C4.31108 2.89484 4.18033 2.98413 4.09023 3.12791C3.97624 3.30983 3.96576 3.50181 4.0655 3.69212C4.17446 3.90003 4.35467 4.00105 4.58726 4.00189C5.15008 4.0044 5.71249 4.00315 6.27447 4.00315Z" fill="#0052CC"/>
</svg>
