<svg width="13" height="16" viewBox="0 0 13 16" fill="none" xmlns="http://www.w3.org/2000/svg">
<path d="M6.35191 16C6.01156 15.9319 5.76542 15.7112 5.52819 15.4604C3.81201 13.6418 2.09031 11.8285 0.370308 10.013C0.00831469 9.63105 -0.0956578 9.13889 0.0910682 8.70047C0.385586 8.00903 1.21142 7.80482 1.76821 8.28668C1.83653 8.34579 1.90061 8.41162 1.96342 8.47746C2.77653 9.33504 3.59048 10.1917 4.40147 11.0515C4.77916 11.4519 5.19887 11.8173 5.3856 12.3793C5.39833 12.3758 5.41106 12.3722 5.42379 12.3686C5.42379 12.3104 5.42379 12.2522 5.42379 12.1935C5.42379 8.55941 5.42507 4.92532 5.4221 1.29123C5.42167 0.927592 5.48915 0.596203 5.74717 0.338704C6.06842 0.0180623 6.44909 -0.0894149 6.8654 0.0789668C7.29869 0.254066 7.53762 0.606054 7.58599 1.09553C7.59533 1.18823 7.59278 1.28272 7.59278 1.37631C7.59321 4.98443 7.59321 8.59255 7.59321 12.2007C7.59321 12.2602 7.59321 12.3198 7.59321 12.3655C7.75193 12.1196 7.90725 11.8711 8.07191 11.6297C8.13471 11.5379 8.21789 11.4604 8.29471 11.3798C9.22749 10.3982 10.1628 9.41923 11.0935 8.43536C11.4198 8.09053 11.8005 7.94141 12.2503 8.07173C12.9522 8.27504 13.2319 9.20517 12.7816 9.81242C12.721 9.89437 12.6535 9.97095 12.5839 10.0444C10.8787 11.846 9.17104 13.6444 7.46844 15.4483C7.23122 15.6995 6.98677 15.9239 6.64812 16C6.54967 16 6.45079 16 6.35191 16Z" fill="#0052CC"/>
</svg>
