<svg width="14" height="16" viewBox="0 0 14 16" fill="none" xmlns="http://www.w3.org/2000/svg">
<path d="M3.02175 16C2.61033 15.8814 2.42366 15.5992 2.37009 15.1821C2.18803 13.7685 1.99048 12.3566 1.79753 10.9442C1.61505 9.60904 1.43006 8.27432 1.24757 6.93918C1.06509 5.60404 0.883866 4.26891 0.702221 2.93377C0.698873 2.90788 0.69385 2.88242 0.692176 2.85653C0.677527 2.59226 0.587542 2.39019 0.376599 2.19272C-0.140294 1.70801 -0.113927 0.885137 0.387062 0.384147C0.893074 -0.121435 1.7088 -0.12895 2.22109 0.367447C2.73296 0.863427 2.7564 1.66167 2.26713 2.18061C2.19012 2.26244 2.16668 2.33717 2.18426 2.44322C2.2236 2.67743 2.2529 2.91331 2.28973 3.17216C2.36047 3.135 2.41404 3.10786 2.46677 3.07905C3.29464 2.6315 4.14887 2.2495 5.07091 2.03783C6.21268 1.77606 7.33059 1.86374 8.41963 2.29208C8.80259 2.4428 9.19057 2.58642 9.55637 2.7722C10.0996 3.04774 10.645 3.03856 11.2138 2.88784C11.8416 2.72126 12.3932 2.39353 12.9616 2.0992C13.0817 2.037 13.2039 1.97688 13.3307 1.93012C13.6271 1.82032 13.9523 2.02447 13.9883 2.33801C13.9954 2.3998 13.9941 2.46284 13.9941 2.52504C13.9945 4.5194 13.9891 6.51376 14 8.50811C14.0017 8.81581 13.887 9.00576 13.6237 9.14395C12.8272 9.56186 12.0136 9.92508 11.1146 10.0733C10.3545 10.1985 9.65599 10.024 8.9767 9.70632C8.62806 9.54308 8.2836 9.3669 7.92575 9.22745C7.01836 8.87426 6.09716 8.92519 5.17429 9.17151C4.53225 9.3431 3.92119 9.59401 3.32268 9.8779C3.24023 9.91715 3.21302 9.95681 3.22684 10.0549C3.46247 11.7449 3.69351 13.4358 3.92286 15.1266C3.97225 15.4902 3.7634 15.8255 3.41895 15.9532C3.38044 15.9674 3.34277 15.9833 3.30468 15.9987C3.20968 16 3.11592 16 3.02175 16Z" fill="#0052CC"/>
</svg>
