<svg width="414" height="361" viewBox="0 0 414 361" fill="none" xmlns="http://www.w3.org/2000/svg">
<g clip-path="url(#clip0_1086_21996)">
<path opacity="0.1" d="M409.849 208.609C409.509 206.869 409.159 205.139 408.799 203.439C399.639 160.349 381.189 115.849 348.299 85.4788C334.049 72.3188 316.819 62.2788 297.619 58.6588C274.179 54.2388 249.809 60.3588 228.269 70.6188C206.729 80.8788 187.399 95.1288 167.439 108.189C154.549 116.619 140.919 124.749 125.709 127.199C107.499 130.139 88.8691 124.639 70.4991 126.379C41.6991 129.119 16.3091 150.599 5.93909 177.609C-4.43091 204.619 -0.680915 235.969 12.9891 261.469C26.6591 286.969 49.5391 306.829 75.3291 319.929C111.079 338.099 153.359 343.769 192.229 333.919C211.189 329.109 229.569 320.709 249.129 320.359C273.389 319.929 296.109 331.929 320.149 335.249C342.709 338.359 366.769 333.259 384.719 319.239C417.989 293.269 417.059 246.069 409.849 208.609Z" fill="#0052CC"/>
<path d="M339.709 102.883C336.459 101.113 334.979 102.583 333.799 101.113C332.619 99.6327 337.049 95.7927 328.179 91.9527C328.179 91.9527 327.589 83.6727 315.469 83.3827C303.349 83.0827 306.599 91.6627 303.349 93.7327C300.099 95.8027 299.209 92.5527 295.959 94.6227C292.709 96.6927 294.189 100.833 291.529 101.423C288.869 102.013 285.319 98.7627 282.069 100.833C278.819 102.903 278.819 104.673 277.339 104.673C275.859 104.673 272.909 103.493 271.129 104.673C269.359 105.853 267.289 107.333 267.289 107.333H342.079C342.069 107.313 342.959 104.653 339.709 102.883Z" fill="white"/>
<path opacity="0.5" d="M339.709 102.883C336.459 101.113 334.979 102.583 333.799 101.113C332.619 99.6327 337.049 95.7927 328.179 91.9527C328.179 91.9527 327.589 83.6727 315.469 83.3827C303.349 83.0827 306.599 91.6627 303.349 93.7327C300.099 95.8027 299.209 92.5527 295.959 94.6227C292.709 96.6927 294.189 100.833 291.529 101.423C288.869 102.013 285.319 98.7627 282.069 100.833C278.819 102.903 278.819 104.673 277.339 104.673C275.859 104.673 272.909 103.493 271.129 104.673C269.359 105.853 267.289 107.333 267.289 107.333H342.079C342.069 107.313 342.959 104.653 339.709 102.883Z" fill="white"/>
<path d="M213.037 298.883C209.787 297.113 208.307 298.583 207.127 297.113C205.947 295.633 210.377 291.793 201.507 287.953C201.507 287.953 200.917 279.673 188.797 279.383C176.677 279.083 179.927 287.663 176.677 289.733C173.427 291.803 172.537 288.553 169.287 290.623C166.037 292.693 167.517 296.833 164.857 297.423C162.197 298.013 158.647 294.763 155.397 296.833C152.147 298.903 152.147 300.673 150.667 300.673C149.187 300.673 146.237 299.493 144.457 300.673C142.687 301.853 140.617 303.333 140.617 303.333H215.407C215.407 303.313 216.287 300.653 213.037 298.883Z" fill="white"/>
<path opacity="0.5" d="M213.037 298.883C209.787 297.113 208.307 298.583 207.127 297.113C205.947 295.633 210.377 291.793 201.507 287.953C201.507 287.953 200.917 279.673 188.797 279.383C176.677 279.083 179.927 287.663 176.677 289.733C173.427 291.803 172.537 288.553 169.287 290.623C166.037 292.693 167.517 296.833 164.857 297.423C162.197 298.013 158.647 294.763 155.397 296.833C152.147 298.903 152.147 300.673 150.667 300.673C149.187 300.673 146.237 299.493 144.457 300.673C142.687 301.853 140.617 303.333 140.617 303.333H215.407C215.407 303.313 216.287 300.653 213.037 298.883Z" fill="white"/>
<path d="M152.607 265.961C147.517 263.191 145.207 265.501 143.357 263.191C141.507 260.881 148.447 254.871 134.567 248.851C134.567 248.851 133.647 235.901 114.677 235.441C95.7169 234.981 100.807 248.391 95.7169 251.631C90.6269 254.871 89.2469 249.781 84.1569 253.021C79.0669 256.261 81.3769 262.731 77.2169 263.661C73.0569 264.581 67.5069 259.501 62.4169 262.731C57.3269 265.961 57.3269 268.741 55.0169 268.741C52.7069 268.741 48.0769 266.891 45.3069 268.741C42.5269 270.591 39.2969 272.901 39.2969 272.901H156.307C156.307 272.901 157.697 268.741 152.607 265.961Z" fill="white"/>
<path opacity="0.5" d="M152.607 265.961C147.517 263.191 145.207 265.501 143.357 263.191C141.507 260.881 148.447 254.871 134.567 248.851C134.567 248.851 133.647 235.901 114.677 235.441C95.7169 234.981 100.807 248.391 95.7169 251.631C90.6269 254.871 89.2469 249.781 84.1569 253.021C79.0669 256.261 81.3769 262.731 77.2169 263.661C73.0569 264.581 67.5069 259.501 62.4169 262.731C57.3269 265.961 57.3269 268.741 55.0169 268.741C52.7069 268.741 48.0769 266.891 45.3069 268.741C42.5269 270.591 39.2969 272.901 39.2969 272.901H156.307C156.307 272.901 157.697 268.741 152.607 265.961Z" fill="white"/>
<path d="M206.024 0.5C171.114 0.5 142.714 25.97 141.734 57.72L114.214 72.79L99.7638 59.05L78.8838 90.75L64.3438 90.13L71.8038 119.06L72.4438 95.25L82.7338 97.18L99.7538 79.29L117.104 93.02L144.294 76.03C152.134 100.47 176.784 118.32 206.014 118.32C241.544 118.32 270.344 91.94 270.344 59.41C270.354 26.88 241.554 0.5 206.024 0.5Z" fill="#263238" stroke="#263238" stroke-miterlimit="10" stroke-linecap="round" stroke-linejoin="round"/>
<path d="M263.015 98.8094H146.955C143.735 98.8094 141.125 96.1994 141.125 92.9794V26.9394C141.125 23.7194 143.735 21.1094 146.955 21.1094H263.025C266.245 21.1094 268.855 23.7194 268.855 26.9394V92.9894C268.845 96.1994 266.235 98.8094 263.015 98.8094Z" fill="#73A0E3" stroke="#263238" stroke-width="2" stroke-miterlimit="10" stroke-linecap="round" stroke-linejoin="round"/>
<path d="M210.085 58.0194L268.845 28.2994V26.9394C268.845 23.7194 266.235 21.1094 263.015 21.1094H146.955C143.735 21.1094 141.125 23.7194 141.125 26.9394V28.5494L198.815 58.1494C202.375 59.8894 206.555 59.8394 210.085 58.0194Z" fill="white" stroke="#263238" stroke-width="2" stroke-miterlimit="10" stroke-linecap="round" stroke-linejoin="round"/>
<path d="M266.585 50.0914C273.732 48.9271 278.581 42.19 277.417 35.0437C276.253 27.8974 269.516 23.048 262.369 24.2122C255.223 25.3765 250.374 32.1136 251.538 39.2599C252.702 46.4062 259.439 51.2556 266.585 50.0914Z" fill="#263238"/>
<path d="M264.668 43.6115C264.416 43.3527 264.293 42.9798 264.293 42.5003L264.285 33.6182L262.41 34.6914C262.272 34.7827 262.101 34.8284 261.921 34.8284C261.66 34.8284 261.448 34.737 261.269 34.5468C261.09 34.3641 261 34.1434 261 33.8998C261 33.5725 261.163 33.3138 261.505 33.1235L264.921 31.2359C265.182 31.0837 265.443 31.0076 265.704 31C266.087 31 266.397 31.1294 266.633 31.3882C266.878 31.6469 266.992 32.0123 266.992 32.4842L267 42.546C267 42.9874 266.87 43.3375 266.617 43.6039C266.356 43.8703 266.038 43.9997 265.639 43.9997C265.247 44.0073 264.921 43.8779 264.668 43.6115Z" fill="white"/>
<path d="M142 210.678C142 210.678 181.5 270.178 191 271.178C200.5 272.178 230.5 241.178 230.5 241.178L222 239.178L193.69 258.318C193.69 258.318 169.47 228.618 148.23 205.898L142 210.678Z" fill="white" stroke="#263238" stroke-width="2" stroke-miterlimit="10" stroke-linecap="round" stroke-linejoin="round"/>
<path d="M149.02 192.953C149.02 192.953 156.95 193.293 156.6 196.743C156.26 200.193 156.6 209.493 154.53 211.223C152.46 212.943 149.36 213.633 148.67 210.193C147.99 206.743 149.02 192.953 149.02 192.953Z" fill="white" stroke="#263238" stroke-width="2" stroke-miterlimit="10" stroke-linecap="round" stroke-linejoin="round"/>
<path d="M146.962 209.152C146.962 209.152 146.622 219.492 145.932 220.522C145.242 221.552 140.422 225.352 137.312 224.662C134.212 223.972 135.242 220.872 135.242 219.152C135.242 217.432 135.242 191.922 135.242 191.922H146.962V209.152Z" fill="#263238" stroke="#263238" stroke-miterlimit="10" stroke-linecap="round" stroke-linejoin="round"/>
<path d="M130.758 212.94C130.758 212.94 128.348 217.42 130.418 220.87C132.488 224.32 138.348 224.32 140.758 222.59C143.168 220.87 141.448 218.45 139.378 217.76C137.308 217.07 134.548 215.35 134.548 213.28C134.548 211.22 131.788 211.56 130.758 212.94Z" fill="white" stroke="#263238" stroke-width="2" stroke-miterlimit="10" stroke-linecap="round" stroke-linejoin="round"/>
<path d="M128.891 206.381C128.911 208.731 129.291 212.701 131.151 214.341C133.251 216.191 142.921 216.321 147.121 213.511C151.321 210.701 148.531 205.811 145.321 206.121C142.661 206.381 139.811 205.721 137.121 205.391C135.601 205.201 130.231 204.011 129.181 205.131C128.921 205.411 128.891 205.881 128.891 206.321C128.891 206.331 128.891 206.361 128.891 206.381Z" fill="white" stroke="#263238" stroke-width="2" stroke-miterlimit="10" stroke-linecap="round" stroke-linejoin="round"/>
<path d="M127.701 197.842C127.371 200.222 127.211 204.242 129.171 205.982C131.381 207.952 142.831 208.542 148.241 205.902C153.651 203.262 151.091 198.192 147.231 198.352C144.041 198.492 140.751 197.692 137.611 197.222C135.841 196.952 129.651 195.502 128.231 196.582C127.881 196.852 127.771 197.332 127.711 197.762C127.711 197.792 127.701 197.812 127.701 197.842Z" fill="white" stroke="#263238" stroke-width="2" stroke-miterlimit="10" stroke-linecap="round" stroke-linejoin="round"/>
<path d="M128.372 186.065C127.522 188.315 126.482 192.205 128.002 194.335C129.722 196.745 140.752 199.845 146.612 198.475C152.472 197.095 151.092 191.585 147.302 190.895C144.152 190.325 141.132 188.815 138.172 187.665C136.502 187.015 130.792 184.235 129.172 184.965C128.772 185.145 128.562 185.595 128.402 186.005C128.392 186.025 128.382 186.045 128.372 186.065Z" fill="white" stroke="#263238" stroke-width="2" stroke-miterlimit="10" stroke-linecap="round" stroke-linejoin="round"/>
<path d="M220.07 358.885L251.57 241.125H262.23L228.79 359.855" fill="#263238"/>
<path d="M220.07 358.885L251.57 241.125H262.23L228.79 359.855" stroke="#263238" stroke-miterlimit="10" stroke-linecap="round" stroke-linejoin="round"/>
<path d="M240.929 347.628L271.429 240.648L262.229 241.128L228.789 359.858" fill="white"/>
<path d="M240.929 347.628L271.429 240.648L262.229 241.128L228.789 359.858" stroke="#263238" stroke-width="2" stroke-miterlimit="10" stroke-linecap="round" stroke-linejoin="round"/>
<path d="M238 357.917L239.41 352.977" stroke="#263238" stroke-width="2" stroke-miterlimit="10" stroke-linecap="round" stroke-linejoin="round"/>
<path d="M199 268.787C199 268.787 202.45 273.957 206.58 274.647C210.72 275.337 254.49 240.867 254.49 240.867L236.57 242.937L199 268.787Z" fill="white" stroke="#263238" stroke-width="2" stroke-miterlimit="10" stroke-linecap="round" stroke-linejoin="round"/>
<path d="M171.211 213.505C171.211 213.505 179.451 145.175 197.861 121.425C218.001 95.4655 258.441 116.575 250.201 158.255C243.881 190.235 225.481 247.425 225.481 247.425L171.211 213.505Z" fill="#B3CCF0" stroke="#263238" stroke-width="2" stroke-miterlimit="10" stroke-linecap="round" stroke-linejoin="round"/>
<path d="M230.332 112.703L338.012 146.733C341.532 147.843 344.782 149.713 347.442 152.273C354.232 158.813 364.352 172.883 355.852 193.633C345.212 219.583 328.232 238.703 328.232 238.703L225.492 247.423L246.332 166.973C246.332 166.973 256.022 131.603 230.332 112.703Z" fill="white"/>
<path opacity="0.3" d="M280.834 207.354C254.934 219.494 241.084 217.384 234.184 213.854L225.484 247.424L328.224 238.704C328.224 238.704 345.214 219.584 355.844 193.634C357.044 190.704 357.864 187.914 358.384 185.254C333.424 179.374 313.634 191.984 280.834 207.354Z" fill="#0052CC"/>
<path d="M230.332 112.703L338.012 146.733C341.532 147.843 344.782 149.713 347.442 152.273C354.232 158.813 364.352 172.883 355.852 193.633C345.212 219.583 328.232 238.703 328.232 238.703L225.492 247.423L246.332 166.973C246.332 166.973 256.022 131.603 230.332 112.703Z" stroke="#263238" stroke-width="2" stroke-miterlimit="10" stroke-linecap="round" stroke-linejoin="round"/>
<path d="M290.86 122.844L274 175.464C271.13 175.944 268.34 178.304 266.94 181.794C265.02 186.614 266.51 191.744 270.27 193.244C274.03 194.744 278.64 192.044 280.56 187.224C282.14 183.254 281.41 179.084 279 176.894L290.86 136.384L307.4 142.024L311.91 130.364L290.86 122.844Z" fill="#263238" stroke="#263238" stroke-miterlimit="10" stroke-linecap="round" stroke-linejoin="round"/>
<path d="M187.828 169.469C187.828 169.469 195.348 177.739 195.728 181.879C196.108 186.019 189.338 196.919 189.338 196.919C189.338 196.919 203.248 205.569 216.408 199.549C229.568 193.529 235.958 167.969 235.958 167.969C235.958 167.969 220.168 175.489 214.148 175.489C208.128 175.489 187.828 169.469 187.828 169.469Z" fill="#263238" stroke="#263238" stroke-miterlimit="10" stroke-linecap="round" stroke-linejoin="round"/>
<path d="M216.412 199.546C220.042 197.886 223.152 194.736 225.762 191.046C225.262 189.416 224.232 188.226 222.432 187.886C214.532 186.386 206.262 195.026 206.262 195.026C206.262 195.026 205.392 197.056 204.922 201.626C208.562 201.816 212.522 201.326 216.412 199.546Z" fill="#0052CC" stroke="#263238" stroke-miterlimit="10" stroke-linecap="round" stroke-linejoin="round"/>
<path d="M205.498 192.785C199.328 192.495 194.998 190.365 193.408 189.445C191.578 193.305 189.328 196.915 189.328 196.915C189.328 196.915 203.238 205.565 216.398 199.545C219.798 197.995 222.738 195.135 225.238 191.755C222.158 192.095 212.118 193.095 205.498 192.785Z" fill="white" stroke="#263238" stroke-miterlimit="10" stroke-linecap="round" stroke-linejoin="round"/>
<path d="M214.148 175.489C208.128 175.489 187.828 169.469 187.828 169.469C187.828 169.469 192.128 174.199 194.388 178.299C199.368 180.299 208.178 183.379 215.278 183.379C221.708 183.379 228.268 181.139 232.498 178.279C234.818 172.539 235.958 167.969 235.958 167.969C235.958 167.969 220.168 175.489 214.148 175.489Z" fill="white" stroke="#263238" stroke-miterlimit="10" stroke-linecap="round" stroke-linejoin="round"/>
<path d="M212.648 158.187C212.648 158.187 214.908 150.287 221.298 149.537C227.688 148.787 229.568 153.297 229.568 153.297C229.568 153.297 217.528 153.297 212.648 158.187Z" fill="#263238"/>
<path d="M231.07 165.703L240.47 169.093" stroke="#263238" stroke-miterlimit="10" stroke-linecap="round" stroke-linejoin="round"/>
<path d="M202.088 150.629C201.618 153.289 200.398 155.299 199.378 155.109C198.358 154.929 197.908 152.629 198.388 149.969C198.858 147.309 200.078 145.299 201.098 145.489C202.118 145.669 202.558 147.969 202.088 150.629Z" fill="#263238"/>
<path d="M214.15 148.786C214.15 148.786 213.77 144.276 223.55 144.276C233.33 144.276 235.21 143.146 231.45 138.256C227.69 133.376 211.89 136.006 214.15 148.786Z" fill="#263238"/>
<path d="M210.395 135.252C210.395 135.252 209.645 128.862 203.625 128.862C197.605 128.862 194.225 136.002 193.845 133.752C193.465 131.492 195.725 123.602 203.995 122.852C212.275 122.092 210.395 135.252 210.395 135.252Z" fill="#263238"/>
<path d="M252.808 130.039C254.158 133.279 255.248 137.429 255.708 142.699C258.108 170.139 233.758 244.899 233.758 244.899" stroke="#263238" stroke-miterlimit="10" stroke-linecap="round" stroke-linejoin="round"/>
<path d="M243.367 119.039C243.367 119.039 246.017 119.999 248.887 123.429" stroke="#263238" stroke-miterlimit="10" stroke-linecap="round" stroke-linejoin="round"/>
<path d="M328.312 231.727C325.943 235.307 324.312 237.707 324.312 237.707" stroke="#263238" stroke-miterlimit="10" stroke-linecap="round" stroke-linejoin="round"/>
<path d="M332.203 146.133C332.203 146.133 350.383 156.423 352.783 171.513C355.183 186.603 349.353 194.493 345.923 202.723C343.963 207.433 337.153 218.233 331.703 226.593" stroke="#263238" stroke-miterlimit="10" stroke-linecap="round" stroke-linejoin="round"/>
<path d="M190.258 204.586C190.258 204.586 195.688 210.016 207.918 208.656C207.918 208.656 195.688 214.086 190.258 204.586Z" fill="#263238"/>
<path d="M80.4297 200.198C80.4297 200.198 112.26 183.508 170.36 193.738C175.92 194.718 181.23 191.008 182.22 185.448L183.06 180.758C183.89 176.128 181.46 171.528 177.17 169.598C161.74 162.668 125.85 143.448 106.97 107.828L80.4297 200.198Z" fill="#73A0E3" stroke="#263238" stroke-width="2" stroke-miterlimit="10" stroke-linecap="round" stroke-linejoin="round"/>
<path d="M108.875 127.164C108.875 127.164 124.425 151.544 150.215 160.374" stroke="white" stroke-width="2" stroke-miterlimit="10" stroke-linecap="round" stroke-linejoin="round"/>
<path d="M177.171 169.601C171.011 166.831 161.571 162.101 151.261 155.141C153.971 163.801 154.751 176.891 143.531 190.681C151.731 191.091 160.671 192.031 170.351 193.741C175.911 194.721 181.221 191.011 182.211 185.451L183.051 180.761C183.901 176.121 181.471 171.531 177.171 169.601Z" fill="#263238" stroke="#263238" stroke-miterlimit="10" stroke-linecap="round" stroke-linejoin="round"/>
<path d="M105.939 157.93C115.006 128.939 113.297 102.605 102.123 99.1098C90.9484 95.6149 74.5393 116.283 65.4722 145.274C56.4051 174.264 58.1134 200.599 69.288 204.094C80.4625 207.589 96.8716 186.921 105.939 157.93Z" fill="#263238" stroke="#263238" stroke-miterlimit="10" stroke-linecap="round" stroke-linejoin="round"/>
<path d="M101.431 156.51C109.588 130.429 108.608 106.911 99.2414 103.982C89.8749 101.052 75.6691 119.82 67.512 145.901C59.3548 171.982 60.3353 195.5 69.7019 198.429C79.0685 201.359 93.2742 182.591 101.431 156.51Z" fill="white" stroke="#263238" stroke-miterlimit="10" stroke-linecap="round" stroke-linejoin="round"/>
<path d="M105.18 141.56L95.8897 141.07L88.9297 164.89L96.3197 170.22C98.1897 165.97 99.9197 161.36 101.43 156.51C103.04 151.38 104.28 146.36 105.18 141.56Z" fill="#263238" stroke="#263238" stroke-miterlimit="10" stroke-linecap="round" stroke-linejoin="round"/>
<path d="M96.4187 154.147C94.4987 160.727 91.1388 165.537 88.9288 164.887C86.7188 164.237 86.4788 158.387 88.3988 151.807C90.3188 145.227 93.6788 140.417 95.8888 141.067C98.0988 141.717 98.3387 147.577 96.4187 154.147Z" fill="white" stroke="#263238" stroke-miterlimit="10" stroke-linecap="round" stroke-linejoin="round"/>
<path d="M202.788 273.264C197.618 270.854 155.228 195.364 152.808 191.234C150.398 187.094 151.088 181.234 153.498 175.724C155.908 170.214 155.908 159.874 154.528 157.804C153.148 155.734 148.898 153.624 148.898 153.624C148.898 153.624 149.698 152.634 151.428 150.564C153.148 148.494 157.288 149.874 157.288 149.874C160.388 147.464 163.158 151.404 163.158 151.404C166.608 149.334 168.318 153.324 168.318 153.324C168.318 153.324 170.318 153.424 171.768 154.354C174.648 156.214 174.178 164.354 174.178 164.354C174.178 164.354 177.278 165.044 177.968 167.114C178.658 169.184 178.658 173.664 177.278 177.114C175.898 180.564 167.278 190.904 167.278 190.904L210.018 264.324" fill="white"/>
<path d="M202.788 273.264C197.618 270.854 155.228 195.364 152.808 191.234C150.398 187.094 151.088 181.234 153.498 175.724C155.908 170.214 155.908 159.874 154.528 157.804C153.148 155.734 148.898 153.624 148.898 153.624C148.898 153.624 149.698 152.634 151.428 150.564C153.148 148.494 157.288 149.874 157.288 149.874C160.388 147.464 163.158 151.404 163.158 151.404C166.608 149.334 168.318 153.324 168.318 153.324C168.318 153.324 170.318 153.424 171.768 154.354C174.648 156.214 174.178 164.354 174.178 164.354C174.178 164.354 177.278 165.044 177.968 167.114C178.658 169.184 178.658 173.664 177.278 177.114C175.898 180.564 167.278 190.904 167.278 190.904L210.018 264.324" stroke="#263238" stroke-width="2" stroke-miterlimit="10" stroke-linecap="round" stroke-linejoin="round"/>
<path d="M157.297 149.875C157.297 149.875 162.247 153.065 162.247 155.845C162.247 158.625 162.807 162.325 162.807 162.325" stroke="#263238" stroke-miterlimit="10" stroke-linecap="round" stroke-linejoin="round"/>
<path d="M163.172 151.391C163.172 151.391 166.132 154.541 166.322 156.391C166.512 158.241 166.882 163.981 166.882 163.981" stroke="#263238" stroke-miterlimit="10" stroke-linecap="round" stroke-linejoin="round"/>
<path d="M168.328 153.312C168.328 153.312 170.028 155.652 170.028 158.432C170.028 161.212 170.398 164.172 170.398 164.172" stroke="#263238" stroke-miterlimit="10" stroke-linecap="round" stroke-linejoin="round"/>
<path d="M174.188 164.344C174.188 164.344 175.577 173.244 175.027 175.094" stroke="#263238" stroke-miterlimit="10" stroke-linecap="round" stroke-linejoin="round"/>
</g>
<defs>
<clipPath id="clip0_1086_21996">
<rect width="413.93" height="360.86" fill="white"/>
</clipPath>
</defs>
</svg>
