<svg width="19" height="16" viewBox="0 0 19 16" fill="none" xmlns="http://www.w3.org/2000/svg">
<path fill-rule="evenodd" clip-rule="evenodd" d="M17.6701 7.99995C18.2508 7.99995 18.4512 7.86756 18.6657 7.34352C18.6657 7.24629 18.6657 7.14905 18.6676 7.05228C18.6551 7.0216 18.6429 6.99076 18.6306 6.95988L18.6305 6.95967L18.6304 6.9594L18.6304 6.95934C18.6028 6.88978 18.5751 6.82008 18.5448 6.75191C18.3406 6.29263 18.1359 5.8336 17.9312 5.37457C17.4616 4.32162 16.9919 3.26866 16.5294 2.2126C16.3427 1.78624 16.0451 1.58949 15.5826 1.5968C15.1095 1.60416 14.6363 1.60254 14.1632 1.60092C13.9621 1.60023 13.761 1.59954 13.5599 1.59954H13.3381L13.3382 1.37254V1.37221C13.3384 1.19458 13.3386 1.02776 13.3376 0.860939C13.3363 0.613979 13.2678 0.39167 13.0811 0.220944C12.8337 -0.00547418 12.5411 -0.0579702 12.2352 0.0639119C11.9275 0.186707 11.7554 0.431384 11.7417 0.766446C11.7342 0.953335 11.736 1.14066 11.7378 1.3341C11.7386 1.42131 11.7395 1.50977 11.7395 1.59999H11.4806H4.21016L3.85478 1.60024C3.57838 1.60053 3.30197 1.60081 3.02557 1.59954C2.6266 1.59771 2.34176 1.76935 2.17788 2.13819C1.98646 2.56938 1.7947 3.00042 1.60294 3.43147L1.60284 3.43169L1.60258 3.43228C1.09933 4.56349 0.596073 5.69473 0.099033 6.8286C0.0342117 6.97696 0.00180113 7.16229 0.023256 7.32115C0.0812299 7.7507 0.409444 7.99949 0.875518 7.99995C2.07475 8.00109 3.27429 8.00064 4.47363 8.0002L5.19389 7.99995C5.22129 7.99995 5.2489 7.99725 5.2812 7.99409C5.29679 7.99256 5.31347 7.99093 5.33175 7.98945C5.33175 7.91798 5.33205 7.84737 5.33235 7.77737C5.33302 7.61935 5.33368 7.46443 5.33084 7.30974C5.32399 6.96874 5.455 6.70535 5.73254 6.49947C6.42346 5.98618 7.11162 5.46929 7.79977 4.9524L7.79986 4.95234L7.79994 4.95228L7.79994 4.95228L7.79995 4.95228C8.12154 4.71072 8.44312 4.46917 8.76499 4.22799C9.17492 3.92077 9.494 3.92169 9.90667 4.23073C10.2278 4.47127 10.5485 4.71223 10.8692 4.95317L10.8694 4.9533L10.8696 4.95343C11.5536 5.46733 12.2376 5.98118 12.925 6.4908C13.208 6.70078 13.3454 6.96555 13.3376 7.3143C13.3342 7.46681 13.335 7.61932 13.3359 7.7774V7.77743V7.77745C13.3363 7.85025 13.3367 7.92424 13.3367 7.99995H13.5522H17.6701ZM18.6464 15.3829C18.651 15.3745 18.6557 15.3661 18.66 15.3576V15.0299C18.4938 14.5446 18.1423 14.3588 17.6466 14.3917C17.5156 14.4004 17.3841 14.3983 17.2464 14.3961C17.1826 14.395 17.1174 14.394 17.0504 14.394V9.60818H13.3415V15.9807C13.3571 15.9822 13.3716 15.9839 13.3852 15.9855L13.3853 15.9855C13.4106 15.9885 13.4332 15.9912 13.456 15.9912L14.4232 15.9917C15.5521 15.9924 16.6812 15.9931 17.81 15.9899C18.2231 15.989 18.4856 15.7995 18.6203 15.4362C18.627 15.4177 18.6367 15.4003 18.6464 15.3829ZM9.33423 5.80824L9.43711 5.88511C9.53544 5.95856 9.63252 6.03107 9.72909 6.10359L10.1186 6.39525L10.1189 6.39544C10.616 6.76742 11.1129 7.13934 11.6062 7.51642C11.6673 7.56343 11.7276 7.65884 11.7276 7.73142C11.7333 10.1554 11.7328 12.5794 11.7323 15.0033L11.7322 15.8578C11.7322 15.8859 11.7292 15.9141 11.7258 15.9456C11.7243 15.9601 11.7226 15.9753 11.7212 15.9916H10.1308V15.7944C10.1308 15.5921 10.1311 15.3897 10.1313 15.1874V15.1873V15.187C10.1319 14.6667 10.1326 14.1462 10.129 13.626C10.1267 13.2791 9.96966 13.0139 9.64784 12.8756C9.34382 12.745 9.05166 12.7916 8.79923 13.0112C8.60385 13.1814 8.52853 13.4065 8.52899 13.6621C8.52996 14.1649 8.52978 14.6679 8.52959 15.1708V15.172L8.52944 15.7756V15.9879H6.92763V15.7852L6.92768 14.4519C6.92781 12.23 6.92793 10.0081 6.92489 7.7862C6.92489 7.65838 6.95913 7.57713 7.06412 7.49907C7.56913 7.12593 8.07112 6.74884 8.57307 6.37178L8.57318 6.3717L8.57319 6.37169C8.77492 6.22015 8.97665 6.06861 9.17857 5.91734C9.20883 5.89507 9.2398 5.8737 9.27272 5.85098L9.27281 5.85092C9.2925 5.83733 9.31288 5.82327 9.33423 5.80824ZM5.32047 15.9835V9.60818C4.07471 9.60818 2.84539 9.60818 1.59507 9.60864V14.4091C1.49728 14.4091 1.40134 14.4072 1.30677 14.4054C1.10118 14.4014 0.902073 14.3975 0.704465 14.4132C0.220132 14.452 -0.098953 14.9322 0.0279505 15.4005C0.132486 15.7863 0.432855 15.9944 0.898016 15.9949C2.07746 15.996 3.25659 15.9956 4.43593 15.9951C4.67158 15.9951 4.90723 15.995 5.14289 15.9949C5.18155 15.9949 5.22042 15.9916 5.2606 15.9882C5.2802 15.9865 5.30011 15.9848 5.32047 15.9835Z" fill="#0052CC"/>
</svg>
