<svg width="17" height="16" viewBox="0 0 17 16" fill="none" xmlns="http://www.w3.org/2000/svg">
<path fill-rule="evenodd" clip-rule="evenodd" d="M10.1439 3.03463H16.0001V0.00250554L15.1878 0.00260576C14.1048 0.00280621 13.0217 0.00300665 11.9387 0C11.8326 0 11.7733 0.0296489 11.7215 0.125695C11.3564 0.800739 10.9881 1.47398 10.6199 2.14724L10.6198 2.1474L10.6197 2.14759L10.6195 2.14787L10.6194 2.1481L10.6193 2.14825L10.6192 2.14841C10.4861 2.39186 10.3529 2.63532 10.2199 2.87887C10.2037 2.90819 10.1893 2.93864 10.1721 2.97521C10.1636 2.99331 10.1544 3.01292 10.1439 3.03463ZM16.0041 16.0017V3.96722H0V16.0017H16.0041ZM11.3088 7.5706H11.3083C11.3083 7.49428 11.3072 7.41787 11.306 7.34148C11.3034 7.17296 11.3008 7.00455 11.3108 6.83732C11.3509 6.15497 11.9268 5.6405 12.6196 5.65595C13.2835 5.67057 13.8356 6.2197 13.8477 6.89035C13.8561 7.34845 13.8561 7.80738 13.8473 8.26547C13.8343 8.93738 13.2731 9.48442 12.597 9.49611C11.9289 9.5078 11.3514 8.9854 11.3113 8.3206C11.3009 8.14921 11.3036 7.97724 11.3063 7.80521C11.3075 7.727 11.3088 7.64878 11.3088 7.5706ZM4.59433 7.58021L4.60122 7.58042L4.60811 7.58063C4.60411 7.67214 4.60282 7.7641 4.60153 7.85606C4.59865 8.06161 4.59577 8.2672 4.56259 8.46801C4.46153 9.08228 3.89319 9.51992 3.27558 9.49528C2.63833 9.4698 2.09881 8.98331 2.06123 8.34899C2.03032 7.83035 2.02907 7.30669 2.06248 6.78804C2.10549 6.12157 2.6993 5.6334 3.38123 5.65595C4.02891 5.67725 4.57387 6.22388 4.59307 6.87699C4.59797 7.03839 4.59671 7.19998 4.59546 7.36151C4.59489 7.43443 4.59433 7.50734 4.59433 7.58021ZM10.4471 7.58292L10.454 7.58313C10.45 7.67443 10.4487 7.76617 10.4475 7.8579V7.85794C10.4448 8.06367 10.4421 8.26938 10.408 8.47009C10.304 9.09063 9.72442 9.52994 9.10347 9.49444C8.46455 9.4577 7.93922 8.96786 7.90456 8.33104C7.87742 7.82742 7.87617 7.32005 7.90498 6.81644C7.94382 6.13075 8.53429 5.63173 9.22958 5.65595C9.88436 5.6785 10.4247 6.23056 10.4393 6.89494C10.4428 7.05256 10.4419 7.21017 10.441 7.36779C10.4406 7.43943 10.4402 7.51107 10.4402 7.58271L10.4471 7.58292ZM6.69397 12.261H6.70942C6.70942 12.1765 6.70657 12.0917 6.70371 12.0069V12.0069C6.69743 11.8204 6.69115 11.6339 6.71527 11.4513C6.80254 10.7898 7.36713 10.3246 8.01439 10.3488C8.66541 10.3731 9.20244 10.8712 9.23751 11.5369C9.26507 12.0551 9.27134 12.5796 9.22081 13.0949C9.15441 13.766 8.5631 14.2216 7.88828 14.1873C7.24394 14.1547 6.71861 13.6119 6.69522 12.9475C6.68978 12.7907 6.69122 12.6336 6.69266 12.4764V12.4764V12.4764V12.4764V12.4764V12.4764V12.4764C6.69331 12.4046 6.69397 12.3328 6.69397 12.261ZM12.7273 14.1401V11.3435H12.7263C12.5831 11.3435 12.4644 11.3435 12.336 11.3431V10.4144H13.6531V14.1401H12.7273ZM5.58443 5.72569H6.9011V9.44642H5.97697V6.65399H5.58443V5.72569ZM3.40503 10.4148V14.1435H2.48675V11.3469H2.09881V10.4148H3.40503ZM4.41268 11.3473V10.4152C4.84572 10.4152 5.27584 10.4152 5.71932 10.4156V14.1385H4.80062V11.3473H4.41268ZM11.3426 10.4148V14.1435H10.4247V11.3469H10.0368V10.4148H11.3426ZM0.00694784 3.03725V0.0138957H8.15914C8.1511 0.0306639 8.14359 0.0468535 8.1363 0.0625808L8.13628 0.0626133L8.13627 0.0626359C8.12123 0.0950632 8.1071 0.125525 8.09108 0.155041C7.93852 0.434342 7.78578 0.713529 7.63304 0.992705C7.28155 1.63515 6.93009 2.27755 6.58107 2.92116C6.53597 3.00384 6.48962 3.03975 6.39107 3.03975C4.53513 3.03716 2.67919 3.0372 0.823258 3.03724H0.822756L0.127214 3.03725H0.00694784ZM1.26932 1.04409V1.96655H2.18468V1.04409H1.26932ZM4.32358 1.05119H3.40404V1.96488H4.32358V1.05119ZM10.5217 0.377094C10.5865 0.258798 10.6534 0.136663 10.7264 0.00298177C10.6013 0.00298177 10.4784 0.00325177 10.357 0.00351841C10.0254 0.00424669 9.70519 0.00494992 9.38477 5.79706e-05C9.277 -0.00161277 9.21978 0.0326375 9.16841 0.12787C8.7738 0.856466 8.37609 1.5835 7.97832 2.31062L7.65847 2.89546C7.64462 2.92049 7.63179 2.9462 7.61641 2.97703C7.60767 2.99455 7.5981 3.01373 7.58704 3.03538C7.71128 3.03538 7.83397 3.03514 7.95553 3.0349L7.95578 3.0349H7.95581C8.28619 3.03425 8.60826 3.03362 8.93032 3.03789C9.03266 3.03914 9.08654 3.00823 9.13583 2.91676C9.46116 2.31435 9.78991 1.7139 10.1187 1.11335L10.4215 0.560175L10.5217 0.377094ZM12.9163 7.57979C12.9163 7.64311 12.9166 7.70643 12.9168 7.76974V7.76977V7.76981V7.76984C12.9175 7.91447 12.9181 8.05904 12.9155 8.2034C12.9117 8.41141 12.7689 8.55885 12.5801 8.55843C12.3992 8.55801 12.2501 8.416 12.2472 8.21718C12.2405 7.79114 12.2405 7.36468 12.2467 6.93864C12.2497 6.72729 12.3971 6.58862 12.5893 6.59364C12.7797 6.59865 12.9105 6.74358 12.9163 6.95619C12.9167 6.96663 12.9167 6.97707 12.9167 6.98751C12.9167 7.18466 12.9167 7.38223 12.9163 7.57979ZM3.65976 7.76661C3.65951 7.70092 3.65926 7.63524 3.65926 7.56955C3.65926 7.50623 3.65953 7.44291 3.6598 7.3796C3.66042 7.23494 3.66104 7.09034 3.65843 6.94594C3.65467 6.7442 3.52017 6.60177 3.33639 6.59383C3.14467 6.5859 2.99096 6.72248 2.98679 6.93299C2.97843 7.35945 2.97885 7.78591 2.98637 8.21195C2.99013 8.41954 3.14676 8.56489 3.33179 8.55863C3.52059 8.55236 3.65592 8.4045 3.65884 8.19357C3.66084 8.05125 3.6603 7.90893 3.65976 7.76661ZM9.50799 7.57766C9.50799 7.64096 9.50826 7.70426 9.50853 7.76756C9.50915 7.91227 9.50977 8.05698 9.50716 8.20169C9.5034 8.4097 9.36138 8.55756 9.17259 8.55839C8.99173 8.55923 8.84053 8.4193 8.83677 8.21881C8.82883 7.79277 8.82883 7.36632 8.83593 6.94028C8.83928 6.72767 8.98714 6.58942 9.17844 6.5936C9.36848 6.59777 9.50423 6.74355 9.50757 6.95448C9.50957 7.0962 9.50903 7.23831 9.50849 7.38055C9.50824 7.44624 9.50799 7.51195 9.50799 7.57766ZM7.62927 12.0823C7.62954 12.1441 7.62982 12.2058 7.62982 12.2676C7.62982 12.4652 7.62982 12.6628 7.6294 12.8612V12.8766C7.63566 13.1084 7.77308 13.2584 7.97566 13.255C8.17155 13.2517 8.30688 13.1047 8.30897 12.88C8.31273 12.4744 8.31273 12.0684 8.30897 11.6628C8.30688 11.4415 8.16529 11.2915 7.97148 11.2903C7.77768 11.289 7.63483 11.4398 7.63065 11.6591C7.62804 11.8 7.62865 11.9411 7.62927 12.0823Z" fill="#0052CC"/>
</svg>
