<svg width="14" height="16" viewBox="0 0 14 16" fill="none" xmlns="http://www.w3.org/2000/svg">
<path fill-rule="evenodd" clip-rule="evenodd" d="M9.0282 0.519011C8.80652 0.295774 8.57578 0.0928591 8.26719 0.000312657C8.17339 0.000312657 8.07991 0.000312657 7.98705 0C7.54058 0.152264 7.36986 0.491184 7.35798 0.934844C7.35752 0.95202 7.35704 0.9692 7.35657 0.986383C7.35128 1.17721 7.34599 1.36843 7.35517 1.5586C7.36174 1.6921 7.3214 1.73618 7.1854 1.74681C5.84222 1.85062 4.60347 2.27458 3.4851 3.02089C1.85209 4.11019 0.766548 5.61032 0.228465 7.49814C0.140957 7.80482 0.0875779 8.12181 0.0344107 8.43753C0.0254606 8.49068 0.0165165 8.5438 0.00741669 8.59682C-0.0319781 8.82787 0.0887075 9.02453 0.294748 9.11395C0.481405 9.19493 0.690885 9.1374 0.839397 8.96263C0.874612 8.92132 0.907712 8.87836 0.940797 8.83541C0.955298 8.81659 0.969797 8.79777 0.98447 8.7791C1.45377 8.17973 2.0103 7.67542 2.65656 7.27397C4.06821 6.39727 5.59616 6.08149 7.24074 6.33349C7.34047 6.34881 7.35329 6.39602 7.35329 6.47888C7.35322 6.5418 7.35275 6.60476 7.35227 6.66773C7.35061 6.88579 7.34895 7.10398 7.36424 7.32086C7.38894 7.67354 7.52901 7.97088 7.88419 8.10313C8.21216 8.22538 8.51294 8.12033 8.74618 7.89178C9.68978 6.96756 10.6224 6.03272 11.5542 5.09662C11.784 4.86588 11.9134 4.57824 11.9487 4.25151C12.0041 3.73938 11.8252 3.31573 11.4657 2.95742C10.6518 2.14608 9.83798 1.33442 9.0282 0.519011ZM6.61216 14.5149C6.61049 14.431 6.6088 14.3462 6.6088 14.2602C6.63417 14.257 6.65679 14.2543 6.67756 14.2518C6.71874 14.2469 6.75262 14.2429 6.78608 14.2371C6.93475 14.2109 7.08418 14.1875 7.23361 14.1641C7.56655 14.1121 7.89952 14.06 8.2243 13.976C9.50244 13.6456 10.6136 12.9999 11.57 12.0938C12.5477 11.1681 13.2459 10.0581 13.6467 8.77374C13.7622 8.40377 13.8345 8.01967 13.9065 7.63651C13.9228 7.54983 13.9391 7.4632 13.9559 7.37679C13.9981 7.16043 13.8781 6.96377 13.6911 6.87622C13.5041 6.78868 13.2965 6.83464 13.1405 7.00473C13.0935 7.05612 13.0509 7.11146 13.0083 7.16677C12.9874 7.19389 12.9665 7.22101 12.9451 7.24766C12.4152 7.9083 11.7839 8.45201 11.0454 8.86597C9.69723 9.62166 8.25838 9.88492 6.72855 9.64824C6.6335 9.63354 6.61005 9.5979 6.61099 9.50911C6.61125 9.48084 6.61153 9.45256 6.61181 9.42428C6.61425 9.17694 6.61671 8.92906 6.6038 8.68244C6.58191 8.26161 6.36149 7.95208 6.02663 7.86015C5.71648 7.77511 5.43915 7.87454 5.22311 8.08621C4.28326 9.00667 3.35029 9.93432 2.42482 10.8692C2.08809 11.209 1.95834 11.6333 2.02087 12.1126C2.06808 12.474 2.24317 12.767 2.49549 13.0196C3.34466 13.8694 4.19446 14.7186 5.04458 15.5675C5.10711 15.6297 5.17308 15.6894 5.24124 15.7454C5.67239 16.099 6.20547 16.0505 6.45185 15.615C6.54033 15.4583 6.58566 15.2648 6.60255 15.0835C6.61977 14.8968 6.61601 14.7082 6.61216 14.5149Z" fill="#0052CC"/>
</svg>
