<svg width="13" height="16" viewBox="0 0 13 16" fill="none" xmlns="http://www.w3.org/2000/svg">
<path d="M6.64809 7.57457e-08C6.98844 0.0680693 7.23458 0.288846 7.47181 0.539628C9.18799 2.35824 10.9097 4.17148 12.6297 5.98696C12.9917 6.36895 13.0957 6.86111 12.9089 7.29953C12.6144 7.99097 11.7886 8.19518 11.2318 7.71332C11.1635 7.65421 11.0994 7.58838 11.0366 7.52254C10.2235 6.66496 9.40952 5.80828 8.59853 4.94845C8.22084 4.5481 7.80113 4.18267 7.6144 3.62066C7.60167 3.62424 7.58894 3.62782 7.57621 3.6314C7.57621 3.68962 7.57621 3.74784 7.57621 3.8065C7.57621 7.44059 7.57493 11.0747 7.5779 14.7088C7.57833 15.0724 7.51085 15.4038 7.25283 15.6613C6.93158 15.9819 6.55091 16.0894 6.1346 15.921C5.70131 15.7459 5.46238 15.3939 5.414 14.9045C5.40467 14.8118 5.40721 14.7173 5.40721 14.6237C5.40679 11.0156 5.40679 7.40745 5.40679 3.79934C5.40679 3.73978 5.40679 3.68022 5.40679 3.63454C5.24807 3.88039 5.09275 4.12894 4.92809 4.37031C4.86528 4.46212 4.78211 4.53959 4.70529 4.6202C3.77251 5.60183 2.83719 6.58077 1.90653 7.56464C1.58018 7.90946 1.19951 8.05859 0.749675 7.92827C0.0477553 7.72496 -0.231909 6.79483 0.218355 6.18758C0.279041 6.10563 0.346518 6.02905 0.416115 5.95561C2.12126 4.15401 3.82896 2.35555 5.53156 0.551719C5.76878 0.30049 6.01323 0.0761301 6.35188 7.92781e-08C6.45033 7.8104e-08 6.54921 7.69249e-08 6.64809 7.57457e-08Z" fill="#0052CC"/>
</svg>
