<svg width="15" height="14" viewBox="0 0 15 14" fill="none" xmlns="http://www.w3.org/2000/svg">
<path d="M2.47994 3.49415C1.97944 3.49415 1.50918 3.50467 1.0398 3.49108C0.558578 3.47793 0.243464 2.98034 0.428851 2.53799C0.539294 2.2745 0.742651 2.12413 1.03322 2.1044C1.09326 2.10046 1.15331 2.10177 1.21379 2.10177C5.32562 2.10177 9.43744 2.10133 13.5493 2.10265C13.658 2.10265 13.7706 2.10265 13.874 2.13115C14.2128 2.22321 14.4122 2.54062 14.3697 2.89967C14.3311 3.22497 14.0511 3.48538 13.7088 3.49283C13.299 3.5016 12.8888 3.4959 12.4786 3.49678C12.4194 3.49678 12.3602 3.49678 12.2761 3.49678C12.2761 3.58051 12.2761 3.64934 12.2761 3.71773C12.2761 6.42488 12.277 9.13159 12.2757 11.8387C12.2752 12.8234 11.7064 13.6287 10.807 13.8997C10.5958 13.9633 10.367 13.9948 10.1466 13.9957C8.30408 14.0031 6.46117 14.0031 4.61869 13.9988C3.38409 13.9957 2.48214 13.0873 2.48126 11.8479C2.47863 9.1408 2.48038 6.43409 2.48038 3.72694C2.47994 3.65679 2.47994 3.58753 2.47994 3.49415ZM5.27741 8.0483C5.27741 8.62261 5.2682 9.19692 5.28354 9.77035C5.28749 9.91985 5.34095 10.0851 5.42072 10.2123C5.57806 10.4643 5.90588 10.5577 6.18944 10.4683C6.49097 10.3732 6.67899 10.1044 6.67942 9.74974C6.68162 8.61778 6.68118 7.48626 6.67811 6.3543C6.67767 6.25785 6.66321 6.15658 6.63209 6.06539C6.52515 5.75018 6.20478 5.55816 5.88528 5.60726C5.53072 5.66206 5.28179 5.93562 5.27872 6.29292C5.27434 6.87819 5.27784 7.46346 5.27741 8.0483ZM9.4782 8.05882C9.4782 7.49021 9.47908 6.9216 9.47776 6.35298C9.47689 5.91721 9.18456 5.602 8.78223 5.59849C8.38385 5.59498 8.0775 5.91283 8.07618 6.34465C8.07312 7.48188 8.07312 8.6191 8.07618 9.75676C8.0775 10.1881 8.38385 10.5064 8.78179 10.5034C9.18369 10.5003 9.47645 10.1842 9.47776 9.74887C9.47908 9.18508 9.4782 8.62173 9.4782 8.05882Z" fill="#0052CC"/>
<path d="M7.36713 1.39231C6.89205 1.39231 6.41653 1.39888 5.94145 1.39011C5.59697 1.38354 5.31911 1.11699 5.27835 0.779416C5.23803 0.44316 5.44971 0.122247 5.77885 0.0266751C5.83056 0.0117693 5.88622 0.00256279 5.93969 0.00256279C6.89555 0.00124758 7.85185 -0.00313647 8.80771 0.00387801C9.15219 0.00650844 9.42918 0.275251 9.47081 0.614138C9.51201 0.949956 9.30076 1.27306 8.96987 1.36513C8.88222 1.38968 8.78668 1.39231 8.69464 1.39318C8.25199 1.39581 7.80978 1.3945 7.36713 1.3945C7.36713 1.39362 7.36713 1.39318 7.36713 1.39231Z" fill="#0052CC"/>
</svg>
