<svg width="17" height="19" viewBox="0 0 17 19" fill="none" xmlns="http://www.w3.org/2000/svg">
<path d="M11.4231 18.263C11.1734 18.2184 10.9238 18.1828 10.6741 18.1382C9.64873 17.942 8.71252 17.5319 7.8298 16.9969C6.44777 16.1588 5.27082 15.0799 4.18302 13.8851C3.0774 12.6725 2.06986 11.3796 1.2763 9.93517C0.687826 8.86522 0.24201 7.75067 0.0725994 6.52914C-0.114643 5.17386 0.0458504 3.86316 0.723491 2.65054C1.08014 2.00856 1.54379 1.46467 2.12335 1.00102C2.39976 0.787025 2.64942 0.537368 2.92582 0.323376C3.50538 -0.131357 4.13844 -0.113524 4.65559 0.421456C4.94983 0.724611 5.22623 1.05451 5.46698 1.41117C5.91279 2.07098 6.36752 2.72187 6.6261 3.48867C6.89359 4.27331 6.78659 4.9777 6.15353 5.54834C5.82363 5.84258 5.50264 6.13682 5.14599 6.37756C4.3881 6.90362 4.2811 7.5456 4.56643 8.37482C4.825 9.14162 5.28865 9.79251 5.77905 10.4167C6.42102 11.237 7.1165 12.0127 7.91896 12.6725C8.36478 13.0381 8.83735 13.368 9.41691 13.5017C9.92514 13.6176 10.3531 13.4839 10.7276 13.1361C11.1021 12.7884 11.4677 12.4317 11.8511 12.1018C12.4841 11.5669 13.1885 11.549 13.9107 11.9146C14.1515 12.0394 14.3833 12.1643 14.5884 12.3337C15.3284 12.9221 16.0952 13.4928 16.6748 14.2685C17.1474 14.9105 17.1117 15.5257 16.5232 16.0607C15.9526 16.5778 15.4176 17.1396 14.731 17.523C14.0356 17.9153 13.2955 18.1649 12.493 18.2452C12.4395 18.2541 12.386 18.263 12.3415 18.2809C12.0472 18.263 11.7352 18.263 11.4231 18.263Z" fill="#0052CC"/>
</svg>
