<svg width="23" height="6" viewBox="0 0 23 6" fill="none" xmlns="http://www.w3.org/2000/svg">
<path d="M22.9954 2.67142C22.9706 2.57361 22.9442 2.47636 22.9219 2.378C22.6153 1.01309 21.3945 0.167068 20.0654 0.399158C18.8415 0.613011 17.9397 1.86298 18.0387 3.20965C18.1355 4.52593 19.1512 5.5858 20.3731 5.64548C21.6524 5.70793 22.7489 4.77459 22.9581 3.44561C22.9644 3.40692 22.9825 3.37101 22.9949 3.33343C22.9954 3.11239 22.9954 2.89191 22.9954 2.67142Z" fill="#0052CC"/>
<path d="M2.9732 0.355085C1.60582 0.358953 0.498448 1.54482 0.500002 3.00422C0.501555 4.4719 1.6224 5.65832 2.99755 5.64838C4.36545 5.63843 5.46712 4.44925 5.46143 2.98874C5.45521 1.5299 4.34162 0.350664 2.9732 0.355085Z" fill="#0052CC"/>
<path d="M14.2271 3.0098C14.2312 1.54985 13.1264 0.361775 11.7585 0.355145C10.3828 0.348513 9.26407 1.53714 9.26563 3.00428C9.26666 4.46368 10.3761 5.64678 11.7435 5.64844C13.1119 5.65009 14.2229 4.4692 14.2271 3.0098Z" fill="#0052CC"/>
</svg>
