<svg width="8" height="14" viewBox="0 0 8 14" fill="none" xmlns="http://www.w3.org/2000/svg">
<path d="M1.1801 0C1.0481 0.0382361 0.907109 0.0588247 0.784113 0.117649C-0.0678568 0.52354 -0.241851 1.53533 0.430126 2.19416C1.86707 3.60596 3.30702 5.01481 4.74397 6.42366C4.77697 6.45601 4.81897 6.48249 4.86397 6.52072C4.81597 6.57072 4.77997 6.60896 4.74697 6.64131C3.30402 8.05899 1.85808 9.47372 0.415126 10.8914C0.0401392 11.2591 -0.0888557 11.6973 0.0611386 12.2032C0.31613 13.065 1.44109 13.3797 2.13107 12.7856C2.18806 12.7385 2.23906 12.6856 2.29006 12.6356C3.964 10.9973 5.63494 9.35607 7.30888 7.71781C7.36288 7.66486 7.42288 7.61486 7.48588 7.5678C8.16685 7.07073 8.17285 6.01189 7.49488 5.506C7.42588 5.45599 7.35988 5.40011 7.29988 5.33834C5.67994 3.75008 4.057 2.16475 2.44305 0.573541C2.15506 0.294124 1.85508 0.0558835 1.44109 0C1.35409 0 1.2671 0 1.1801 0Z" fill="#0052CC"/>
</svg>
