<svg width="16" height="16" viewBox="0 0 16 16" fill="none" xmlns="http://www.w3.org/2000/svg">
<path d="M7.06278 0C5.10451 0 3.14624 0 1.18797 0C1.17378 0.00684957 1.16057 0.0166347 1.1459 0.0195702C0.422367 0.162922 0.00165462 0.674193 0.00116539 1.41639C0.00018692 3.21245 -0.00127983 5.00899 0.00214481 6.80504C0.00312328 7.28305 0.16994 7.70821 0.506021 8.0453C3.00926 10.5557 5.51642 13.0626 8.02945 15.5637C8.17963 15.7129 8.37482 15.8411 8.57295 15.913C9.137 16.1185 9.62082 15.9473 10.0352 15.5329C11.8124 13.7539 13.5887 11.974 15.3709 10.2C15.6629 9.90936 15.9227 9.60798 16 9.1882C16 9.07372 16 8.95923 16 8.84426C15.9256 8.4235 15.6683 8.12114 15.3758 7.82954C12.9518 5.41262 10.5346 2.98886 8.10821 0.574385C7.93552 0.402657 7.71196 0.27594 7.49817 0.153137C7.36707 0.0777915 7.20906 0.0494147 7.06278 0ZM2.66829 3.99966C2.66927 3.27262 3.27539 2.66693 4.00136 2.66791C4.72832 2.66888 5.33493 3.27507 5.33444 4.00064C5.33395 4.7262 4.72587 5.33337 4.00087 5.33288C3.2749 5.33239 2.66731 4.72424 2.66829 3.99966Z" fill="#0052CC"/>
</svg>
