<svg width="62" height="62" fill="none" xmlns="http://www.w3.org/2000/svg"><circle opacity=".824" cx="31" cy="31" r="29.5" fill="#328AF1" fill-opacity=".1" stroke="#328AF1" stroke-width="3"/><path fill-rule="evenodd" clip-rule="evenodd" d="M30.5 13C20.283 13 12 21.283 12 31.5S20.283 50 30.5 50 49 41.717 49 31.5c-.01-10.213-8.287-18.49-18.5-18.5zm9.15 19.213c-.155.31-.407.563-.718.717v.008L26.14 39.334a1.6 1.6 0 01-2.314-1.439V25.103a1.599 1.599 0 012.314-1.43l12.792 6.395a1.599 1.599 0 01.718 2.145z" fill="#328AF1"/><ellipse cx="43.302" cy="18.375" rx="7.736" ry="7.811" fill="#328AF1"/><path d="M39.908 19.088l3.574 3.412 3.426-3.412M43.408 22.5v-8" stroke="#fff" stroke-width="1.9" stroke-linecap="round" stroke-linejoin="round"/></svg>