<svg width="62" height="62" fill="none" xmlns="http://www.w3.org/2000/svg"><circle opacity=".824" cx="31" cy="31" r="29.5" fill="#328AF1" fill-opacity=".1" stroke="#328AF1" stroke-width="3"/><path fill-rule="evenodd" clip-rule="evenodd" d="M12 31.5C12 21.283 20.283 13 30.5 13c10.213.01 18.49 8.287 18.5 18.5C49 41.717 40.717 50 30.5 50S12 41.717 12 31.5zm15.71-8.332a1.6 1.6 0 01.717.719h.008l5.22 10.443 2.858-5.72a1.099 1.099 0 011.968 0h.005l4.398 8.798a1.1 1.1 0 01-.99 1.592H20.6a1.6 1.6 0 01-1.431-2.315l6.396-12.798a1.599 1.599 0 012.144-.719z" fill="#328AF1"/><ellipse cx="43.302" cy="18.375" rx="7.736" ry="7.811" fill="#328AF1"/><path d="M39.908 19.088l3.574 3.412 3.426-3.412M43.408 22.5v-8" stroke="#fff" stroke-width="1.9" stroke-linecap="round" stroke-linejoin="round"/></svg>