<svg xmlns="http://www.w3.org/2000/svg" xmlns:xlink="http://www.w3.org/1999/xlink" width="73" height="89"><defs><linearGradient id="a" x1="50%" x2="50%" y1="59.06%" y2="0%"><stop offset="0%" stop-color="#21C8F6"/><stop offset="100%" stop-color="#278EA5"/></linearGradient><linearGradient id="e" x1="50%" x2="51.872%" y1="16.689%" y2="46.157%"><stop offset="0%" stop-color="#00D0FF"/><stop offset="100%" stop-color="#637BFF" stop-opacity="0"/></linearGradient><linearGradient id="g" x1="45.554%" x2="4.476%" y1="168.048%" y2="5.569%"><stop offset="0%" stop-color="#C4D6EB" stop-opacity=".676"/><stop offset="100%" stop-color="#91ACD2" stop-opacity=".3"/></linearGradient><linearGradient id="h" x1="39.503%" x2="19.28%" y1="81.515%" y2="6.036%"><stop offset="0%" stop-color="#76E1FF"/><stop offset="100%" stop-color="#637BFF" stop-opacity="0"/></linearGradient><linearGradient id="l" x1="0%" x2="100%" y1="50%" y2="50%"><stop offset="0%" stop-color="#5B79A2"/><stop offset="100%" stop-color="#2E4469"/></linearGradient><linearGradient id="v" x1="41.546%" x2="66.374%" y1="91.27%" y2="50%"><stop offset="0%" stop-color="#1390B3"/><stop offset="100%" stop-color="#4BDEFF"/></linearGradient><linearGradient id="y" x1="41.881%" x2="65.725%" y1="91.27%" y2="50%"><stop offset="0%" stop-color="#1390B3"/><stop offset="100%" stop-color="#4BDEFF"/></linearGradient><linearGradient id="B" x1="38.57%" x2="38.57%" y1="115.211%" y2="55.561%"><stop offset="0%" stop-color="#047392"/><stop offset="100%" stop-color="#86E9FF"/></linearGradient><linearGradient id="C" x1="67.101%" x2="-9.31%" y1="50%" y2="0%"><stop offset="0%" stop-color="#9BE9FF"/><stop offset="100%" stop-color="#87E9FF"/></linearGradient><path id="j" d="M36.503 14.098s-.291.034-.709.168c-.913.29-2.432 1.057-2.833 2.982-.02.281-.022.567.007.848.088.89.533 1.653 1.18 2.25.866.8 2.095 1.3 3.318 1.407 1.888.165 3.76-.613 4.254-2.689.051-.213.091-.417.126-.618.11-1.173-.076-2.11-.494-2.819a3.04 3.04 0 00-.46-.6c-.703-.714-1.74-1.066-2.977-1.066-.447 0-.92.046-1.412.137"/><path id="n" d="M41.022 17.847c0 .3-.232.544-.519.544a.533.533 0 01-.52-.544c0-.3.233-.544.52-.544.287 0 .519.244.519.544"/><path id="p" d="M31.766 29.189s-.87-1.34-1.744-1.712c-.262-.112-.525-.137-.765-.01-.321.168-.394.57-.341 1.047.118 1.062.86 2.488.86 2.488.146-.137.302-.265.463-.383 1.329-.969 3.075-1.305 3.707-1.399.154-.023.242-.031.242-.031s-.085-.268-.27-.605a3.578 3.578 0 00-.42-.611 2.245 2.245 0 00-.78-.597.634.634 0 00-.257-.06c-.767 0-.695 1.873-.695 1.873"/><path id="r" d="M44.935 27.965a2.224 2.224 0 00-.817.54c-.153.155-.283.32-.39.476-.253.37-.378.689-.378.689s.087.015.24.048c.583.13 2.122.539 3.35 1.457.248.184.483.39.695.617 0 0 .881-1.451 1.033-2.512.051-.359.02-.673-.158-.871-.32-.36-.848-.21-1.205-.009-.792.445-1.538 1.442-1.538 1.442s.198-1.92-.608-1.92a.678.678 0 00-.224.043"/><path id="u" d="M42.514 3.744c.19 0 .357.075.503.228L53.2 14.586a.734.734 0 01-.001 1.048L43.282 25.97c-.744-.885-1.388-1.63-2.049-2.237l8.275-8.624-8.588-8.952a.735.735 0 010-1.048l1.093-1.138a.676.676 0 01.502-.228z"/><path id="x" d="M21.739 3.744c.19 0 .357.076.502.228l1.093 1.139a.735.735 0 010 1.048l-8.589 8.951 8.59 8.952.03.034a11.743 11.743 0 00-1.874 2.33.73.73 0 01-.255-.178L11.052 15.634a.735.735 0 010-1.048L21.236 3.972a.678.678 0 01.503-.228z"/><path id="A" d="M4.184 15.757v4.085H0v-4.085h4.184zm5.38 0v4.085H5.378v-4.085h4.184zm5.379 0v4.085h-4.184v-4.085h4.184zm-10.76-5.252v4.085H0v-4.085h4.184zm0-5.253v4.086H0V5.252h4.184zm0-5.252v4.085H0V0h4.184z"/><filter id="i" width="301.5%" height="330.4%" x="-100.8%" y="-115.2%" filterUnits="objectBoundingBox"><feOffset in="SourceAlpha" result="shadowOffsetOuter1"/><feGaussianBlur in="shadowOffsetOuter1" result="shadowBlurOuter1" stdDeviation="3"/><feColorMatrix in="shadowBlurOuter1" values="0 0 0 0 0.137254902 0 0 0 0 0.788235294 0 0 0 0 0.968627451 0 0 0 0.426300262 0"/></filter><filter id="m" width="1834%" height="1754.6%" x="-867%" y="-827.3%" filterUnits="objectBoundingBox"><feOffset in="SourceAlpha" result="shadowOffsetOuter1"/><feGaussianBlur in="shadowOffsetOuter1" result="shadowBlurOuter1" stdDeviation="3"/><feColorMatrix in="shadowBlurOuter1" values="0 0 0 0 0.137254902 0 0 0 0 0.788235294 0 0 0 0 0.968627451 0 0 0 0.426300262 0"/></filter><filter id="t" width="241.5%" height="181%" x="-70.8%" y="-40.5%" filterUnits="objectBoundingBox"><feOffset in="SourceAlpha" result="shadowOffsetOuter1"/><feGaussianBlur in="shadowOffsetOuter1" result="shadowBlurOuter1" stdDeviation="3"/><feColorMatrix in="shadowBlurOuter1" values="0 0 0 0 0.137254902 0 0 0 0 0.788235294 0 0 0 0 0.968627451 0 0 0 0.426300262 0"/></filter><filter id="w" width="241.5%" height="179.4%" x="-70.8%" y="-39.7%" filterUnits="objectBoundingBox"><feOffset in="SourceAlpha" result="shadowOffsetOuter1"/><feGaussianBlur in="shadowOffsetOuter1" result="shadowBlurOuter1" stdDeviation="3"/><feColorMatrix in="shadowBlurOuter1" values="0 0 0 0 0.137254902 0 0 0 0 0.788235294 0 0 0 0 0.968627451 0 0 0 0.426300262 0"/></filter><filter id="z" width="220.5%" height="190.7%" x="-60.2%" y="-45.4%" filterUnits="objectBoundingBox"><feOffset in="SourceAlpha" result="shadowOffsetOuter1"/><feGaussianBlur in="shadowOffsetOuter1" result="shadowBlurOuter1" stdDeviation="3"/><feColorMatrix in="shadowBlurOuter1" values="0 0 0 0 0.137254902 0 0 0 0 0.788235294 0 0 0 0 0.968627451 0 0 0 0.426300262 0"/></filter><radialGradient id="c" cx="45.075%" cy="95.862%" r="102.241%" fx="45.075%" fy="95.862%" gradientTransform="scale(1 .9978) rotate(-85.644 .452 .96)"><stop offset="0%" stop-color="#1C2737"/><stop offset="100%" stop-color="#1E2F4C"/></radialGradient><radialGradient id="f" cx="37.435%" cy="76.012%" r="68.008%" fx="37.435%" fy="76.012%" gradientTransform="matrix(.28014 -.93706 .75183 .34916 -.302 .846)"><stop offset="0%" stop-color="#00C3FF" stop-opacity=".826"/><stop offset="100%" stop-color="#293F64"/></radialGradient><radialGradient id="k" cx="50%" cy="50%" r="50.05%" fx="50%" fy="50%" gradientTransform="scale(.87487 1) rotate(-87.44 .536 .463)"><stop offset="0%" stop-color="#21C8F6"/><stop offset="100%" stop-color="#6EE4FF"/></radialGradient><radialGradient id="o" cx="50%" cy="50%" r="52.436%" fx="50%" fy="50%" gradientTransform="matrix(.03729 -.95354 .9993 .03558 -.019 .959)"><stop offset="0%" stop-color="#21C8F6"/><stop offset="100%" stop-color="#6EE4FF"/></radialGradient><ellipse id="b" cx="30.694" cy="30.762" rx="30.694" ry="30.762"/></defs><g fill="none" fill-rule="evenodd"><g transform="translate(8 16.857)"><ellipse cx="32.429" cy="32.5" fill="url(#a)" fill-rule="nonzero" rx="32.429" ry="32.5"/><g transform="translate(1.806 1.81)"><mask id="d" fill="#fff"><use xlink:href="#b"/></mask><use fill="url(#c)" xlink:href="#b"/><g mask="url(#d)"><g transform="translate(-7.222 5.82)"><path stroke="url(#e)" stroke-width=".577" d="M37.76 3.323c3.438 0 6.88.831 9.013 2.379 1.569 1.139 2.774 4.065 3.144 5.028.038.104.816.438 2.227.839 2.808.797 7.838 2.214 10.307 4.008a1.828 1.828 0 01-.498.13c-.94.134-2.295.159-2.779.164h0l-1.203.012 1.078.534c.237.118.525.259.853.419 2.33 1.136 6.664 3.24 8.318 4.719-1.054.179-2.088.144-2.478.127l-.094-.004a20.65 20.65 0 01-.853-.059l.758.58c2.117 1.622 6.85 5.243 9.482 9.276h0l-3.895-1.004c.05.19.096.352.135.485.1.346.277.89.496 1.563.579 1.783 1.457 4.484 2.005 6.836-.284.168-.427.179-.584.152-.618-.107-1.39-.496-1.898-.78-.467.732-.51 1.246-.557 1.77.614 2.837 1.655 8.14 1.803 12.799-.386-.065-1.18-1.018-1.753-1.77l-.216-.288c-.269-.362-.45-.626-.45-.626s-.271-.392-.593-.908l.063.891.01.135.005.08s.107 1.563.201 3.23l.04.718c.038.715.07 1.41.089 1.973-.365-.513-.84-1.28-1.111-1.712l-.358-.569a29.373 29.373 0 01-.518 1.861c-.022 1.313-.78 2.358-2.07 3.248-1.472 1.015-3.634 1.824-6.266 2.447-5.905 1.398-14.16 1.844-22.387 1.443-8.16-.396-16.295-1.625-22.084-3.588-2.577-.874-4.687-1.892-6.116-3.05-1.26-1.024-1.99-2.153-1.98-3.401-.136-.6-.257-1.137-.372-1.678-.057-.27-.113-.539-.166-.807l-.373.736c-.447.88-1.006 1.98-1.537 3.015-1.039-4.925-.098-11.662.416-14.636-.022-.362-.045-.647-.067-.928h0l-.074-.931-.464.81c-.298.52-.741 1.243-1.169 1.49-.353-.106-.462-.228-.53-.432.013-4.312 1.802-10.199 1.802-10.199l.021-.068.037-.116c.106-.336.355-1.104.718-2.099-.527 1.065-1.278 2.02-1.278 2.02l-.006.009c-.096.12-1.272 1.584-2.438 2.28-.295.176-.587.304-.859.331 1.505-3.598 6.085-7.117 8.478-8.798.305-.331.57-.623.846-.92.216-.233.43-.457.64-.675-.312.085-.63.148-.9.194-.586.1-1.42.2-1.979.059 2.129-2.398 6.573-4.385 8.34-5.14.304-.131.691-.294 1.139-.474h0l-5.548-.358c3.234-2.824 13.883-4.857 13.883-4.857.217-.185 1.618-4.122 3.485-5.54 2.145-1.628 5.41-2.375 8.67-2.375z"/><path fill="url(#f)" d="M28.917 5.469c4.491-3.411 13.79-3.075 18.025 0 1.611 1.169 2.863 4.167 3.245 5.16l.09.24.03.086h.001s9.378 1.942 12.665 4.661c0 .474-3.015.535-3.796.543.097.07.191.14.284.211l.018.009c1.732.788 7.588 3.527 9.204 5.22 0 .47-2.317.4-2.954.371.101.104.198.207.295.31 1.596 1.143 7 5.204 9.636 9.654l.173.182-4.282-1.241-.004.235c.382 1.057 1.811 5.1 2.556 8.379-.376.788-2.054-.01-2.95-.51-.038.504-.081 1.019-.128 1.544.62 2.804 1.688 8.256 1.81 12.987-.52.362-2.941-2.72-2.941-2.72s.346 5.076.346 6.708c-.264-.138-1.22-1.627-1.66-2.326a28.89 28.89 0 01-.356 1.224c-.09 11.685-61.552 8.915-61.467-2.988a59.779 59.779 0 01-.365-1.617c-.549 1.08-1.267 2.494-1.894 3.713-1.327-5.006-.313-12.358.231-15.513l-.07-.856c-.585 1.023-1.732 2.676-2.237.958 0-4.351 1.814-10.327 1.814-10.327S1.384 33.384 0 32.296c1.762-3.692 6.543-7.384 9.02-9.123.256-.289.522-.582.8-.881-1.052.179-2.85.338-2.727-.693 2.337-2.016 7.076-4.147 8.925-4.938.138-.107.279-.213.42-.32h-5.366c2.595-3.082 14.48-5.386 14.48-5.386s1.45-4.032 3.365-5.486z" opacity=".705"/><path fill="#24385A" stroke="url(#g)" stroke-width=".562" d="M44.913 17.801c0 4.133-3.196 7.483-7.14 7.483-3.942 0-7.139-3.35-7.139-7.483 0-4.132 3.197-7.482 7.14-7.482 3.943 0 7.14 3.35 7.14 7.482"/><path fill="#000" fill-opacity=".152" stroke="url(#h)" stroke-width=".562" d="M44.913 17.801c0 4.133-3.196 7.483-7.14 7.483-3.942 0-7.139-3.35-7.139-7.483 0-4.132 3.197-7.482 7.14-7.482 3.943 0 7.14 3.35 7.14 7.482"/><g fill-rule="nonzero"><use fill="#000" filter="url(#i)" xlink:href="#j"/><use fill="url(#k)" xlink:href="#j"/></g><path fill="url(#l)" d="M39.125 16.143s-.648.076-1.078.57c-.233.266-.402.654-.372 1.218.02.38.203.706.476.958.231.213.528.374.845.47.657.197 1.402.115 1.843-.349.154-.162.27-.372.333-.632.072-.305.103-.578.096-.821-.012-.454-.154-.8-.392-1.043-.257-.262-.627-.401-1.068-.422l-.12-.003a3.13 3.13 0 00-.563.054"/><g fill-rule="nonzero"><use fill="#000" filter="url(#m)" xlink:href="#n"/><use fill="url(#o)" xlink:href="#n"/></g><path fill="#1C2737" fill-rule="nonzero" d="M45.244 40.062c-1.245.528-2.655.438-3.871-.245-.52-.292-.736-.98-.48-1.535.253-.554.88-.766 1.4-.474a2.41 2.41 0 002.135.135c.686-.29 1.213-.893 1.446-1.655.18-.59.772-.894 1.322-.68.55.214.85.865.669 1.455-.422 1.378-1.378 2.47-2.622 2.998z"/><mask id="q" fill="#fff"><use xlink:href="#p"/></mask><path d="M31.766 29.189s-.87-1.34-1.744-1.712c-.262-.112-.525-.137-.765-.01-.321.168-.394.57-.341 1.047.118 1.062.86 2.488.86 2.488.146-.137.302-.265.463-.383 1.329-.969 3.075-1.305 3.707-1.399.154-.023.242-.031.242-.031s-.085-.268-.27-.605a3.578 3.578 0 00-.42-.611 2.245 2.245 0 00-.78-.597.634.634 0 00-.257-.06c-.767 0-.695 1.873-.695 1.873" mask="url(#q)"/><mask id="s" fill="#fff"><use xlink:href="#r"/></mask><path d="M44.935 27.965a2.224 2.224 0 00-.817.54c-.153.155-.283.32-.39.476-.253.37-.378.689-.378.689s.087.015.24.048c.583.13 2.122.539 3.35 1.457.248.184.483.39.695.617 0 0 .881-1.451 1.033-2.512.051-.359.02-.673-.158-.871-.32-.36-.848-.21-1.205-.009-.792.445-1.538 1.442-1.538 1.442s.198-1.92-.608-1.92a.678.678 0 00-.224.043" mask="url(#s)"/></g></g></g></g><g fill-rule="nonzero" transform="translate(8 6)"><use fill="#000" filter="url(#t)" xlink:href="#u"/><use fill="url(#v)" xlink:href="#u"/></g><g fill-rule="nonzero" transform="translate(8 6)"><use fill="#000" filter="url(#w)" xlink:href="#x"/><use fill="url(#y)" xlink:href="#x"/></g><g transform="translate(34.15 6)" fill-rule="nonzero"><use fill="#000" filter="url(#z)" xlink:href="#A"/><use fill="url(#B)" xlink:href="#A"/></g><g fill-rule="nonzero"><path d="M1.327 0c.28 0 .541.088.755.237L14.818 7.72c.417.244.655.676.67 1.126v.1c-.015.45-.253.883-.67 1.127L1.99 17.612a1.318 1.318 0 01-1.803-.469l-.005-.008-.005-.01a1.344 1.344 0 01-.17-.8v-7.44c0-.684.52-1.246 1.185-1.314l.135-.006c.73 0 1.32.59 1.32 1.32v5.238l8.894-5.226-8.894-5.226v1.187a1.32 1.32 0 01-1.185 1.313l-.135.007a1.32 1.32 0 01-1.32-1.32V1.47c-.023-.226.012-.46.108-.678L.177.669.219.603.237.577l-.06.092a1.3 1.3 0 01.3-.359L.495.295A.977.977 0 01.567.24L.6.218.674.172.715.15.768.124.84.092l.032-.01c.101-.039.208-.064.32-.075L1.326 0z" fill="url(#C)" transform="scale(1 -1) rotate(45 109.315 -18.454)"/><path fill="#53B5FF" d="M15.26 71.915l-5.201 5.202a1.342 1.342 0 101.9 1.899l5.2-5.202a1.343 1.343 0 00-1.899-1.899zM7.516 79.66l-.783.782a1.343 1.343 0 101.9 1.9l.782-.783a1.344 1.344 0 00-1.9-1.9z"/></g></g></svg>