<svg xmlns="http://www.w3.org/2000/svg" width="27" height="27">
    <g fill="none" fill-rule="evenodd">
    <g fill="#000">
        <path d="M4.608 6.721l3.798 3.799a1.948 1.948 0 01-2.754 2.754L1.853 9.476A1.948 1.948 0 014.608 6.72zm8.023 8.024l8.086 8.085a1.948 1.948 0 11-2.755 2.754L9.877 17.5a1.948 1.948 0 012.754-2.754z"/>
        <path d="M2.755 6.22L24.105.836a2.057 2.057 0 012.483 1.433 1.94 1.94 0 01-1.392 2.411l-21.35 5.385a2.057 2.057 0 01-2.483-1.434 1.94 1.94 0 011.392-2.41z"/>
        <path d="M17.384 23.604l5.385-21.35A1.94 1.94 0 0125.179.86a2.057 2.057 0 011.434 2.483l-5.384 21.35a1.94 1.94 0 01-2.411 1.392 2.057 2.057 0 01-1.434-2.482z"/>
    </g>
        <path fill="#53B5FF" d="M16.541 13.778l-7.63 7.631a2.015 2.015 0 11-2.85-2.849l7.631-7.63a2.015 2.015 0 112.85 2.848zm-11.43 11.43l-1.108 1.109a2.015 2.015 0 11-2.85-2.85l1.11-1.108a2.015 2.015 0 112.848 2.85z"/>
    </g>
</svg>